<svg width="149" height="30" viewBox="0 0 149 30" fill="none" xmlns="http://www.w3.org/2000/svg">
<path d="M2.984 23.12C2.19467 22.544 1.56533 22.0107 1.096 21.52C0.648 21.008 0.402667 20.5173 0.36 20.048C0.317334 19.664 0.317334 19.1413 0.36 18.48C0.424 17.8187 0.498667 17.168 0.584 16.528C0.669333 15.888 0.744 15.408 0.808 15.088C0.914667 14.9813 0.957333 14.8427 0.936 14.672C0.936 14.48 0.936 14.384 0.936 14.384C0.914667 14.2773 0.989334 14 1.16 13.552C1.33067 13.0827 1.49067 12.4853 1.64 11.76C2.06667 10.48 2.472 9.41333 2.856 8.56C3.26133 7.68533 3.656 6.93867 4.04 6.32C4.424 5.70133 4.808 5.136 5.192 4.624C6.06667 3.728 6.888 3.01333 7.656 2.48C8.44533 1.94667 9.17067 1.53067 9.832 1.232C10.2587 0.975999 10.6533 0.773333 11.016 0.623999C11.3787 0.474666 11.6773 0.453333 11.912 0.559999C13.1067 0.815999 14.12 1.33867 14.952 2.128C15.784 2.91733 16.3387 4.05867 16.616 5.552C16.7653 6.49067 16.8507 7.344 16.872 8.112C16.9147 8.85867 16.8613 9.60533 16.712 10.352C16.5627 11.0773 16.2853 11.8773 15.88 12.752C15.496 13.6267 14.952 14.6507 14.248 15.824C13.3733 17.552 12.4133 19.0027 11.368 20.176C10.344 21.328 9.30933 22.2027 8.264 22.8C7.24 23.3973 6.25867 23.7173 5.32 23.76C4.40267 23.824 3.624 23.6107 2.984 23.12ZM5.544 21.008C6.03467 20.944 6.42933 20.848 6.728 20.72C7.048 20.592 7.37867 20.3467 7.72 19.984C8.06133 19.6213 8.54133 19.088 9.16 18.384C9.71467 17.744 10.1733 17.2 10.536 16.752C10.92 16.304 11.24 15.8453 11.496 15.376C11.7733 14.9067 12.0293 14.352 12.264 13.712C12.52 13.0507 12.7973 12.208 13.096 11.184C13.2667 10.544 13.384 10.0747 13.448 9.776C13.5333 9.456 13.5867 9.18933 13.608 8.976C13.6293 8.76267 13.6293 8.47467 13.608 8.112C13.608 7.728 13.608 7.152 13.608 6.384C13.5867 6.02133 13.512 5.616 13.384 5.168C13.256 4.69867 13.1067 4.368 12.936 4.176C12.7227 3.94133 12.4027 3.73867 11.976 3.568C11.5493 3.39733 11.1013 3.41867 10.632 3.632C10.376 3.73867 10.056 3.96267 9.672 4.304C9.288 4.624 8.89333 5.008 8.488 5.456C8.08267 5.904 7.69867 6.352 7.336 6.8C6.97333 7.248 6.68533 7.65333 6.472 8.016C6.25867 8.37867 6.152 8.63467 6.152 8.784C6.152 8.784 6.14133 8.83733 6.12 8.944C6.12 9.05067 6.07733 9.15733 5.992 9.264C5.71467 9.56267 5.42667 10.0533 5.128 10.736C4.82933 11.4187 4.552 12.1973 4.296 13.072C4.04 13.9467 3.82667 14.8213 3.656 15.696C3.48533 16.5707 3.37867 17.36 3.336 18.064C3.336 18.4053 3.336 18.6933 3.336 18.928C3.336 19.1627 3.35733 19.376 3.4 19.568C3.464 19.7387 3.56 19.9307 3.688 20.144C3.816 20.3573 4.072 20.5707 4.456 20.784C4.86133 20.9973 5.224 21.072 5.544 21.008ZM18.4852 20.944C18.0799 20.7733 17.7493 20.5173 17.4933 20.176C17.2586 19.8133 17.1413 19.376 17.1413 18.864C17.1413 18.6507 17.1839 18.288 17.2693 17.776C17.3546 17.264 17.4719 16.688 17.6213 16.048C17.7706 15.408 17.9199 14.8107 18.0693 14.256C18.2826 13.872 18.4213 13.488 18.4852 13.104C18.5706 12.72 18.6133 12.4853 18.6133 12.4C18.6559 12.144 18.7306 11.8027 18.8373 11.376C18.9439 10.9493 19.0506 10.5653 19.1573 10.224C19.2853 9.86133 19.3706 9.65867 19.4133 9.616C19.5199 9.50933 19.7013 9.44533 19.9573 9.424C20.2133 9.40267 20.4693 9.43467 20.7253 9.52C20.9813 9.584 21.1519 9.72267 21.2373 9.936C21.4719 10.192 21.5999 10.576 21.6213 11.088C21.6639 11.6 21.5679 12.1973 21.3333 12.88C21.1413 13.3067 20.9493 13.808 20.7573 14.384C20.5653 14.96 20.3946 15.4933 20.2453 15.984C20.1173 16.4533 20.0426 16.7733 20.0213 16.944L18.8693 16.912C19.2319 16.5707 19.5733 16.2187 19.8933 15.856C20.2133 15.472 20.4479 15.1733 20.5973 14.96C20.9599 14.4693 21.2693 14.064 21.5253 13.744C21.8026 13.4027 22.1546 12.9973 22.5813 12.528C23.0079 12.0373 23.4666 11.696 23.9573 11.504C24.4479 11.2907 24.8106 11.184 25.0453 11.184C25.5146 11.2693 25.9306 11.5147 26.2933 11.92C26.6773 12.304 26.9119 12.88 26.9973 13.648C26.9973 13.9467 26.9653 14.2987 26.9013 14.704C26.8586 15.1093 26.8373 15.312 26.8373 15.312C26.8373 15.312 27.0079 15.0987 27.3493 14.672C27.7119 14.2453 28.1919 13.7653 28.7893 13.232C29.1946 12.9333 29.5893 12.7627 29.9733 12.72C30.3573 12.656 30.6986 12.784 30.9973 13.104C31.5519 13.4027 31.9573 13.9253 32.2133 14.672C32.4693 15.4187 32.5546 16.2613 32.4693 17.2C32.4053 17.7547 32.4053 18.2027 32.4693 18.544C32.5546 18.864 32.6399 19.152 32.7253 19.408C33.0026 19.792 33.0453 20.1333 32.8533 20.432C32.6613 20.7093 32.4906 20.848 32.3413 20.848C32.1279 20.848 31.8079 20.8053 31.3813 20.72C30.9546 20.6347 30.5599 20.4853 30.1973 20.272C29.8559 20.0587 29.6853 19.7707 29.6853 19.408V17.424C29.6853 16.9547 29.6639 16.6133 29.6213 16.4C29.5999 16.1653 29.5466 16.016 29.4613 15.952C29.2266 15.824 28.9386 15.92 28.5973 16.24C28.2559 16.56 27.8826 17.0187 27.4773 17.616C27.0933 18.192 26.6773 18.8427 26.2293 19.568C25.8239 20.2293 25.4933 20.6347 25.2373 20.784C24.9813 20.912 24.7359 20.9013 24.5013 20.752C24.0319 20.6027 23.7333 20.4 23.6053 20.144C23.4986 19.8667 23.4879 19.5573 23.5733 19.216C23.6799 18.8533 23.8079 18.384 23.9573 17.808C24.1279 17.232 24.2879 16.6773 24.4373 16.144C24.5866 15.5893 24.6826 15.184 24.7253 14.928C24.6399 14.7573 24.4906 14.704 24.2773 14.768C24.0853 14.8107 23.8826 14.9067 23.6693 15.056C23.4133 15.2267 23.1359 15.408 22.8373 15.6C22.5599 15.792 22.2293 16.1973 21.8453 16.816C21.5893 17.2213 21.3013 17.6693 20.9813 18.16C20.6613 18.6293 20.3626 19.056 20.0853 19.44C19.8293 19.824 19.6159 20.0907 19.4453 20.24C19.2959 20.624 19.1573 20.8693 19.0293 20.976C18.9013 21.0613 18.7199 21.0507 18.4852 20.944ZM34.5513 19.76C34.4659 19.5893 34.4446 19.3973 34.4873 19.184C34.5299 18.9493 34.4339 18.7467 34.1993 18.576C34.3059 17.936 34.3913 17.36 34.4553 16.848C34.5406 16.336 34.6473 15.856 34.7753 15.408C34.8819 15.088 34.9993 14.7787 35.1273 14.48C35.2766 14.1813 35.4579 13.872 35.6713 13.552C35.9059 13.232 36.1726 12.9013 36.4713 12.56C36.5566 12.4533 36.6419 12.3573 36.7273 12.272C36.8339 12.1867 36.9299 12.1013 37.0153 12.016C37.0579 11.952 37.1006 11.888 37.1433 11.824C37.1859 11.76 37.2286 11.7067 37.2713 11.664C37.5273 11.344 37.8259 11.0667 38.1673 10.832C38.5299 10.576 38.9033 10.3627 39.2873 10.192C39.6926 10.0213 40.0766 9.88267 40.4392 9.776C40.6526 9.712 40.8446 9.65867 41.0153 9.616C41.1859 9.57333 41.3566 9.552 41.5273 9.552C41.6979 9.552 41.8899 9.57333 42.1033 9.616C42.1033 9.50933 42.0713 9.38133 42.0073 9.232C41.9646 9.06133 41.9433 8.90133 41.9433 8.752C41.9859 8.64533 41.9966 8.51733 41.9753 8.368C41.9753 8.19733 41.9539 8.05867 41.9113 7.952C41.7406 7.73867 41.6553 7.48267 41.6553 7.184C41.6766 6.88533 41.5699 6.608 41.3353 6.352C41.3779 5.968 41.2713 5.63733 41.0153 5.36C40.7806 5.06133 40.4606 4.83733 40.0553 4.688C39.6713 4.51733 39.2659 4.432 38.8393 4.432C38.5619 4.432 38.2953 4.464 38.0393 4.528C37.8046 4.57067 37.5913 4.66667 37.3993 4.816C37.2073 4.83733 36.9406 4.85867 36.5993 4.88C36.2793 4.88 36.0339 4.80533 35.8633 4.656C35.4579 4.208 35.2126 3.856 35.1273 3.6C35.0419 3.32267 35.0633 3.088 35.1913 2.896C35.3619 2.68267 35.5966 2.50133 35.8953 2.352C36.2153 2.18133 36.5459 1.97867 36.8873 1.744C37.1006 1.82933 37.2713 1.81867 37.3993 1.712C37.5486 1.60533 37.7406 1.59466 37.9753 1.68C38.2739 1.616 38.5513 1.60533 38.8073 1.648C39.0633 1.66933 39.3193 1.712 39.5753 1.776C39.6606 1.79733 39.7353 1.81867 39.7993 1.84C39.8846 1.84 39.9699 1.85067 40.0553 1.872C40.8659 2 41.5913 2.352 42.2313 2.928C42.8926 3.48267 43.3939 4.112 43.7353 4.816C43.8419 5.02933 43.9593 5.264 44.0873 5.52C44.2153 5.75467 44.3219 5.98933 44.4073 6.224C44.4926 6.416 44.5673 6.71467 44.6313 7.12C44.7166 7.52533 44.7806 7.96267 44.8233 8.432C44.8873 8.88 44.9299 9.296 44.9513 9.68C44.9513 9.82933 44.9513 9.968 44.9513 10.096C44.9513 10.224 44.9406 10.3413 44.9193 10.448C44.6633 11.9627 44.2366 13.5307 43.6393 15.152C43.0633 16.7733 42.3806 18.2453 41.5913 19.568C41.3566 19.9733 41.0579 20.3467 40.6953 20.688C40.3539 21.0293 39.9699 21.3173 39.5433 21.552C39.1593 21.7653 38.7433 21.9253 38.2953 22.032C37.8686 22.16 37.4313 22.2347 36.9833 22.256C36.6633 22 36.3433 21.7653 36.0233 21.552C35.7033 21.3173 35.4153 21.0613 35.1593 20.784C34.9033 20.5067 34.7006 20.1653 34.5513 19.76ZM37.3993 19.632C37.5059 19.5893 37.6019 19.5467 37.6873 19.504C37.7939 19.4613 37.8686 19.3973 37.9113 19.312C38.2313 19.0773 38.5619 18.7253 38.9033 18.256C39.2659 17.7867 39.5966 17.296 39.8953 16.784C40.2153 16.272 40.4393 15.8453 40.5673 15.504C40.6313 15.312 40.7166 15.0667 40.8233 14.768C40.9299 14.4693 41.0366 14.256 41.1433 14.128C41.2926 13.8507 41.4206 13.5413 41.5273 13.2C41.6339 12.8587 41.6766 12.5387 41.6553 12.24C40.8019 12.5813 40.0553 13.0507 39.4153 13.648C38.7966 14.224 38.2633 14.9173 37.8153 15.728C37.7513 16.176 37.6233 16.6027 37.4313 17.008C37.2606 17.4133 37.1539 17.8507 37.1113 18.32C37.0259 18.512 36.9726 18.6827 36.9513 18.832C36.9513 18.9813 36.9726 19.1627 37.0153 19.376C37.0579 19.44 37.1113 19.4933 37.1753 19.536C37.2393 19.5787 37.3139 19.6107 37.3993 19.632ZM51.5233 21.84C50.7979 22.032 50.2646 22.1173 49.9233 22.096C49.6033 22.096 49.2726 21.9573 48.9313 21.68C48.8246 21.5733 48.7073 21.456 48.5793 21.328C48.4513 21.2 48.3766 20.9653 48.3553 20.624C48.3339 20.4747 48.4193 20.2933 48.6113 20.08C48.8246 19.8453 49.1339 19.7493 49.5393 19.792C49.7526 19.8987 50.0406 19.9307 50.4033 19.888C50.7659 19.8453 51.1393 19.728 51.5233 19.536C51.9286 19.344 52.3019 19.0773 52.6433 18.736C53.0699 18.224 53.4113 17.744 53.6673 17.296C53.9233 16.8267 54.0619 16.4533 54.0833 16.176C54.0619 16.048 54.0299 15.9307 53.9873 15.824C53.9446 15.7173 53.8806 15.6107 53.7953 15.504C53.4113 15.632 53.1019 15.7813 52.8673 15.952C52.6539 16.1013 52.4406 16.2613 52.2273 16.432C51.5659 16.9653 51.0753 17.392 50.7552 17.712C50.4566 18.0107 50.2219 18.288 50.0513 18.544C49.8806 18.8 49.6673 19.12 49.4113 19.504C49.2406 19.7813 49.0379 20.0373 48.8033 20.272C48.5686 20.4853 48.4086 20.6453 48.3233 20.752C48.1953 21.2 47.9286 21.4667 47.5233 21.552C46.9899 21.4453 46.6059 21.264 46.3713 21.008C46.1579 20.7307 46.0939 20.3253 46.1793 19.792C46.2219 19.4933 46.3073 19.088 46.4353 18.576C46.5846 18.0427 46.7126 17.6373 46.8193 17.36C47.4379 15.3547 48.0459 13.7227 48.6433 12.464C49.2619 11.2053 49.6673 10.2773 49.8593 9.68L50.3713 9.36C50.7339 9.38133 51.0539 9.488 51.3313 9.68C51.6086 9.85067 51.7793 10.224 51.8433 10.8C51.8433 10.9067 51.7579 11.152 51.5873 11.536C51.4379 11.92 51.2566 12.368 51.0433 12.88C50.8299 13.3707 50.6273 13.84 50.4353 14.288C50.2646 14.7147 50.1366 15.0347 50.0513 15.248C49.9873 15.4187 50.0406 15.4293 50.2113 15.28C50.4033 15.1093 50.6806 14.864 51.0433 14.544C51.3206 14.3093 51.5873 14.128 51.8433 14C52.0993 13.8507 52.3126 13.744 52.4833 13.68C52.7819 13.552 53.0699 13.4773 53.3473 13.456C53.6459 13.4347 53.8699 13.4133 54.0193 13.392C54.7446 13.4133 55.2673 13.552 55.5873 13.808C55.9286 14.064 56.1419 14.352 56.2273 14.672C56.3339 14.992 56.3873 15.2587 56.3873 15.472C56.4939 15.8133 56.5473 16.1547 56.5473 16.496C56.5686 16.8373 56.5366 17.1787 56.4513 17.52C56.3873 17.6907 56.2486 17.9573 56.0353 18.32C55.8219 18.6613 55.5766 19.0133 55.2993 19.376C55.0433 19.7387 54.7659 20.016 54.4673 20.208C54.2753 20.4 53.9873 20.6133 53.6033 20.848C53.2406 21.0827 52.8673 21.296 52.4833 21.488C52.0993 21.6587 51.7793 21.776 51.5233 21.84ZM58.7873 22.384C58.1473 22.3413 57.6673 22.2133 57.3473 22C57.0486 21.7653 56.8139 21.36 56.6433 20.784C56.6433 20.3147 56.6859 19.92 56.7713 19.6C56.8779 19.2587 56.9633 18.9387 57.0273 18.64C57.1979 17.8933 57.3579 17.3493 57.5073 17.008C57.6566 16.6453 57.8273 16.2293 58.0193 15.76C58.1259 15.5253 58.2326 15.2587 58.3393 14.96C58.4459 14.6613 58.5419 14.3733 58.6273 14.096C58.7339 13.7547 58.8193 13.4453 58.8833 13.168C58.9686 12.8693 59.0539 12.5813 59.1393 12.304C59.2459 11.9413 59.3419 11.5787 59.4272 11.216C59.5126 10.8533 59.5979 10.4693 59.6833 10.064C60.0459 9.68 60.4299 9.52 60.8353 9.584C61.2406 9.648 61.6779 9.94667 62.1473 10.48C62.3179 10.8853 62.4033 11.216 62.4033 11.472C62.4246 11.728 62.3713 12.016 62.2433 12.336C62.2006 12.4427 62.1259 12.6453 62.0193 12.944C61.9126 13.2213 61.7846 13.5627 61.6353 13.968C61.5073 14.352 61.3579 14.768 61.1873 15.216C60.9953 15.7707 60.8032 16.336 60.6112 16.912C60.4406 17.4667 60.2913 17.9573 60.1632 18.384C60.0353 18.7893 59.9499 19.0667 59.9073 19.216C59.7793 19.5573 59.6833 19.8667 59.6193 20.144C59.5553 20.4213 59.4913 20.784 59.4272 21.232C59.4699 21.4027 59.4379 21.5947 59.3313 21.808C59.2459 22.0213 59.0646 22.2133 58.7873 22.384ZM72.7308 22.384C72.6454 22.384 72.5281 22.3733 72.3788 22.352C72.2508 22.3307 72.1441 22.2773 72.0588 22.192C71.9734 22.192 71.8241 22.16 71.6108 22.096C71.3974 22.032 71.2054 21.9573 71.0348 21.872C70.8214 21.7867 70.5334 21.616 70.1708 21.36C69.8081 21.0827 69.4454 20.784 69.0828 20.464C68.7201 20.144 68.4108 19.8453 68.1548 19.568C67.9201 19.2907 67.8028 19.088 67.8028 18.96C67.8028 18.8533 67.7494 18.8 67.6428 18.8C67.6428 18.8 67.6108 18.768 67.5468 18.704C67.4828 18.6187 67.4508 18.5333 67.4508 18.448C67.4508 18.2347 67.3441 18.128 67.1308 18.128C67.1308 18.128 66.9814 18.2773 66.6828 18.576C66.4054 18.8747 66.0534 19.2373 65.6268 19.664C65.0294 20.2613 64.5814 20.6987 64.2828 20.976C64.0054 21.232 63.7814 21.36 63.6108 21.36C63.4401 21.36 63.2161 21.2853 62.9388 21.136C62.6828 20.9653 62.4481 20.7413 62.2348 20.464C62.0428 20.1867 61.9468 19.856 61.9468 19.472C61.9468 19.472 62.1601 19.2267 62.5868 18.736C63.0348 18.2453 63.5574 17.744 64.1548 17.232L65.7868 15.568L65.4348 14.352C65.2854 14.0107 65.1254 13.6587 64.9548 13.296C64.8054 12.912 64.6881 12.592 64.6028 12.336C64.3468 11.9733 64.2081 11.7493 64.1868 11.664C64.1868 11.5573 64.2721 11.376 64.4427 11.12C64.6134 10.9493 64.8908 10.7787 65.2748 10.608C65.6801 10.416 66.0108 10.4053 66.2668 10.576C66.3948 10.576 66.5654 10.7573 66.7788 11.12C66.9921 11.4613 67.1841 11.8453 67.3548 12.272C67.5468 12.6773 67.6428 12.9653 67.6428 13.136C67.6428 13.4773 67.7068 13.6587 67.8348 13.68C67.9841 13.7013 68.3148 13.5413 68.8268 13.2C69.0828 12.9653 69.2854 12.7733 69.4348 12.624C69.5841 12.4533 69.6588 12.368 69.6588 12.368C69.7228 12.304 69.9148 12.144 70.2348 11.888C70.5548 11.632 70.8854 11.3653 71.2268 11.088C71.5681 10.8107 71.7921 10.6507 71.8988 10.608C72.0694 10.48 72.2828 10.48 72.5388 10.608C72.7948 10.7147 73.0188 10.8853 73.2108 11.12C73.4241 11.3333 73.5308 11.5573 73.5308 11.792C73.5308 12.048 73.4561 12.336 73.3068 12.656C73.1574 12.9547 72.8694 13.2213 72.4428 13.456C72.0588 13.7333 71.7601 13.9573 71.5468 14.128C71.3548 14.2987 71.1521 14.4907 70.9388 14.704C70.7254 14.896 70.3841 15.1947 69.9148 15.6L69.0828 16.272L69.5948 17.136C69.6801 17.2853 69.7974 17.456 69.9468 17.648C70.1174 17.84 70.2774 17.9787 70.4268 18.064C70.5548 18.2347 70.7788 18.4587 71.0988 18.736C71.4188 18.992 71.7281 19.2267 72.0268 19.44C72.3254 19.6533 72.4961 19.76 72.5388 19.76C72.6241 19.76 72.7201 19.792 72.8268 19.856C72.9334 19.92 73.0614 19.9947 73.2108 20.08C73.3814 20.2507 73.4561 20.528 73.4348 20.912C73.4134 21.2747 73.3281 21.616 73.1788 21.936C73.0508 22.2347 72.9014 22.384 72.7308 22.384ZM75.1555 21.328C75.0702 21.1573 74.8782 20.9867 74.5795 20.816C74.3022 20.6453 74.1635 20.5173 74.1635 20.432C74.1635 20.3467 74.1102 20.2187 74.0035 20.048C73.9182 19.856 73.8328 19.7173 73.7475 19.632C73.6408 19.504 73.6728 19.1947 73.8435 18.704C74.0142 18.192 74.2702 17.5733 74.6115 16.848C74.9528 16.1227 75.3262 15.3867 75.7315 14.64C75.9022 14.4693 76.0728 14.2453 76.2435 13.968C76.4142 13.6907 76.5422 13.5093 76.6275 13.424C76.6275 13.3387 76.6595 13.264 76.7235 13.2C76.7875 13.1147 76.8622 13.072 76.9475 13.072L77.2035 12.56C77.2462 12.4747 77.3742 12.304 77.5875 12.048C77.8222 11.792 78.0995 11.5147 78.4195 11.216C78.7395 10.896 79.0595 10.5973 79.3795 10.32C79.7208 10.0427 79.9982 9.84 80.2115 9.712C80.6595 9.41333 81.1182 9.27467 81.5875 9.296C82.0782 9.31733 82.4942 9.46667 82.8355 9.744C82.8995 9.808 83.0382 9.936 83.2515 10.128C83.4862 10.32 83.7422 10.5333 84.0195 10.768C84.3182 11.0027 84.5742 11.216 84.7875 11.408L85.9715 12.464L85.4275 14.064C85.1502 14.9173 85.0755 15.664 85.2035 16.304C85.3315 16.944 85.5342 17.4987 85.8115 17.968C85.9182 18.2027 86.0568 18.384 86.2275 18.512C86.4195 18.64 86.6648 18.7253 86.9635 18.768C87.1342 18.7893 87.2942 18.8533 87.4435 18.96C87.5928 19.0667 87.6675 19.2373 87.6675 19.472C87.6675 19.984 87.5715 20.3573 87.3795 20.592C87.2088 20.8053 87.0168 20.9333 86.8035 20.976C86.0995 21.0613 85.4275 20.9867 84.7875 20.752C84.1475 20.5173 83.5715 19.9093 83.0595 18.928C82.9742 18.8 82.8568 18.5653 82.7075 18.224C82.5795 17.8613 82.5048 17.6267 82.4835 17.52C82.3982 17.6267 82.2808 17.7653 82.1315 17.936C82.0035 18.0853 81.8755 18.224 81.7475 18.352C80.2328 19.888 78.9315 20.8907 77.8435 21.36C76.7768 21.808 75.8808 21.7973 75.1555 21.328ZM76.9155 18.672C77.0648 18.6933 77.2995 18.6187 77.6195 18.448C77.9395 18.256 78.3662 17.9467 78.8995 17.52C79.6248 16.9013 80.2222 16.3893 80.6915 15.984C81.1608 15.5787 81.6195 15.056 82.0675 14.416L82.7715 13.264C82.5582 12.7733 82.3662 12.4533 82.1955 12.304C82.0248 12.1547 81.8542 12.08 81.6835 12.08C81.4062 12.08 81.0755 12.2613 80.6915 12.624C80.3075 12.9653 79.8702 13.4773 79.3795 14.16C78.9102 14.8213 78.3768 15.6533 77.7795 16.656C77.5022 17.1253 77.2888 17.584 77.1395 18.032C76.9902 18.4587 76.9155 18.672 76.9155 18.672ZM92.3808 22.576C91.2074 22.576 90.3008 22.2347 89.6608 21.552C89.0421 20.8693 88.7328 19.824 88.7328 18.416C88.7328 17.648 88.8714 16.8053 89.1488 15.888C89.4474 14.9707 89.8314 14.0747 90.3008 13.2C90.7914 12.3253 91.3248 11.568 91.9008 10.928C92.4768 10.2667 93.0528 9.808 93.6288 9.552C93.8421 9.44533 94.0661 9.37067 94.3008 9.328C94.5568 9.264 94.8021 9.232 95.0368 9.232C95.2928 9.232 95.5701 9.25333 95.8688 9.296C96.1888 9.31733 96.4874 9.38133 96.7648 9.488C97.2554 9.63733 97.6821 9.92533 98.0448 10.352C98.4288 10.7787 98.6208 11.3973 98.6208 12.208C98.6208 12.4213 98.5994 12.656 98.5568 12.912C98.5141 13.1467 98.4394 13.3813 98.3328 13.616C98.0554 14.32 97.6288 14.992 97.0528 15.632C96.4981 16.272 95.9114 16.72 95.2928 16.976C95.1221 17.0613 94.9514 17.1253 94.7808 17.168C94.6314 17.1893 94.4714 17.2 94.3008 17.2C93.8528 17.2 93.4474 17.136 93.0848 17.008C92.7434 16.88 92.4234 16.7093 92.1248 16.496L91.8688 16.272L91.7088 16.592C91.5594 16.9973 91.4528 17.3387 91.3888 17.616C91.3461 17.8933 91.3248 18.096 91.3248 18.224C91.3248 18.48 91.3354 18.7467 91.3568 19.024C91.3781 19.28 91.4421 19.4933 91.5488 19.664C91.6341 19.7707 91.7408 19.856 91.8688 19.92C92.0181 19.984 92.1994 20.016 92.4128 20.016C92.5408 20.016 92.6581 20.016 92.7648 20.016C92.8928 19.9947 92.9994 19.9733 93.0848 19.952C93.4688 19.8667 93.7781 19.728 94.0128 19.536C94.2688 19.3227 94.5354 19.1413 94.8128 18.992L94.9408 18.928L94.9088 18.832C95.2714 18.64 95.5168 18.5227 95.6448 18.48C95.7728 18.416 95.8688 18.3627 95.9328 18.32C96.0181 18.2347 96.1141 18.192 96.2208 18.192C96.5194 18.1493 96.8074 18.2347 97.0848 18.448C97.3834 18.64 97.5328 18.8853 97.5328 19.184C97.5328 19.312 97.4368 19.5147 97.2448 19.792C97.0741 20.0693 96.8501 20.3467 96.5728 20.624C96.3168 20.88 96.0501 21.0827 95.7728 21.232C95.7088 21.2533 95.6448 21.2853 95.5808 21.328C95.5168 21.3493 95.4528 21.3813 95.3888 21.424H95.4208C95.2288 21.68 95.0368 21.808 94.8448 21.808H94.5888C94.5034 21.9573 94.2261 22.1173 93.7568 22.288C93.2874 22.48 92.8288 22.576 92.3808 22.576ZM94.0448 14.864C94.2368 14.864 94.4074 14.832 94.5568 14.768C94.7274 14.704 94.8874 14.6293 95.0368 14.544C95.5488 14.1813 95.8794 13.712 96.0288 13.136C96.1781 12.56 96.1248 12.1227 95.8688 11.824C95.8261 11.76 95.7728 11.7173 95.7088 11.696C95.6448 11.6533 95.5701 11.632 95.4848 11.632C95.2501 11.632 94.9834 11.7067 94.6848 11.856C94.4074 12.0053 94.1301 12.2187 93.8528 12.496C93.5754 12.7733 93.3194 13.104 93.0848 13.488L92.6688 14.16C92.7114 14.1387 92.7434 14.128 92.7648 14.128C92.8074 14.1067 92.8394 14.096 92.8608 14.096C93.0528 14.096 93.1808 14.16 93.2448 14.288C93.3088 14.416 93.3834 14.544 93.4688 14.672C93.5754 14.8 93.7674 14.864 94.0448 14.864ZM116.425 21.84C116.083 21.904 115.742 21.9147 115.401 21.872C115.059 21.8293 114.739 21.7013 114.441 21.488C114.291 21.1893 114.142 20.912 113.993 20.656C113.865 20.4 113.875 20.1013 114.025 19.76C114.153 19.4187 114.206 19.0773 114.185 18.736C114.185 18.3733 114.238 18.0213 114.345 17.68C114.366 17.6373 114.377 17.5947 114.377 17.552C114.398 17.5093 114.419 17.4773 114.441 17.456C114.547 17.264 114.611 17.04 114.633 16.784C114.675 16.528 114.729 16.2933 114.793 16.08C114.814 16.016 114.835 15.888 114.857 15.696C114.878 15.504 114.899 15.2907 114.921 15.056C114.942 14.8 114.963 14.5653 114.985 14.352C115.027 14.1813 115.049 14.032 115.049 13.904C115.07 13.7547 115.081 13.6693 115.081 13.648C115.017 13.712 114.814 13.9787 114.473 14.448C114.131 14.9173 113.747 15.4507 113.321 16.048C112.894 16.624 112.521 17.136 112.201 17.584C112.158 17.6693 112.115 17.744 112.073 17.808C112.03 17.8507 111.987 17.904 111.945 17.968C111.838 18.1173 111.753 18.2453 111.689 18.352C111.625 18.4373 111.593 18.4907 111.593 18.512C111.315 18.96 110.963 19.4187 110.537 19.888C110.11 20.336 109.705 20.7413 109.321 21.104C108.894 21.1893 108.553 21.168 108.297 21.04C108.062 20.8907 107.763 20.7733 107.401 20.688C107.315 20.5173 107.23 20.3467 107.145 20.176C107.059 19.984 106.974 19.8027 106.889 19.632C106.931 19.4187 107.006 19.0347 107.113 18.48C107.241 17.904 107.369 17.264 107.497 16.56C107.646 15.856 107.753 15.2053 107.817 14.608C107.838 14.5013 107.849 14.4053 107.849 14.32C107.87 14.2347 107.881 14.1493 107.881 14.064C107.902 14.0213 107.913 13.9787 107.913 13.936C107.913 13.8933 107.913 13.8507 107.913 13.808C107.934 13.6587 107.945 13.52 107.945 13.392C107.945 13.264 107.934 13.1573 107.913 13.072C107.913 13.0293 107.913 12.9973 107.913 12.976C107.913 12.9333 107.902 12.9013 107.881 12.88C107.369 13.8827 106.878 14.672 106.409 15.248C105.961 15.824 105.534 16.3467 105.129 16.816C104.787 17.2427 104.446 17.68 104.105 18.128C103.785 18.5547 103.433 18.9707 103.049 19.376C102.835 19.5893 102.601 19.8027 102.345 20.016C102.11 20.2293 101.854 20.432 101.577 20.624C101.449 20.9013 101.278 21.104 101.065 21.232C100.851 21.36 100.627 21.424 100.393 21.424C100.03 21.424 99.6888 21.3067 99.3688 21.072C99.0488 20.816 98.8888 20.5173 98.8888 20.176C98.8888 19.856 99.0381 19.5467 99.3368 19.248C99.3794 19.184 99.4221 19.12 99.4648 19.056C99.5074 18.9707 99.5394 18.896 99.5608 18.832C99.9874 18.384 100.478 17.872 101.033 17.296C101.609 16.72 102.153 16.1547 102.665 15.6C103.177 15.0453 103.55 14.5867 103.785 14.224C103.891 14.0533 104.03 13.8293 104.201 13.552C104.393 13.2747 104.617 12.976 104.873 12.656C105.193 12.208 105.534 11.76 105.897 11.312C106.259 10.8427 106.601 10.416 106.921 10.032C107.262 9.62667 107.518 9.33867 107.689 9.168C107.881 9.296 108.083 9.40267 108.297 9.488C108.531 9.552 108.755 9.584 108.969 9.584C109.075 9.73333 109.182 9.88267 109.289 10.032C109.417 10.16 109.555 10.288 109.705 10.416C109.961 10.6293 110.131 10.9387 110.217 11.344C110.323 11.7493 110.377 12.1973 110.377 12.688C110.377 13.4773 110.291 14.3093 110.121 15.184C109.971 16.0373 109.854 16.7627 109.769 17.36C109.811 17.3173 109.843 17.2747 109.865 17.232C109.907 17.168 109.939 17.1147 109.961 17.072C110.366 16.4533 110.761 15.8667 111.145 15.312C111.529 14.7573 111.913 14.2453 112.297 13.776C112.638 13.328 112.979 12.912 113.321 12.528C113.662 12.1227 113.993 11.7387 114.313 11.376C114.654 11.0133 114.995 10.6613 115.337 10.32C115.507 10.1493 115.678 9.97867 115.849 9.808C116.041 9.63733 116.233 9.46667 116.425 9.296C116.617 9.31733 116.819 9.328 117.033 9.328C117.267 9.30667 117.491 9.296 117.705 9.296C117.918 9.44533 118.099 9.552 118.249 9.616C118.398 9.65867 118.601 9.712 118.857 9.776C118.857 10.0533 118.889 10.3093 118.953 10.544C119.017 10.7787 119.027 11.0347 118.985 11.312C118.942 11.5467 118.91 11.7173 118.889 11.824C118.889 11.9307 118.825 12.1013 118.697 12.336C118.569 12.5707 118.441 12.9547 118.313 13.488C118.185 14 118.078 14.5333 117.993 15.088C117.907 15.6213 117.833 16.048 117.769 16.368C117.747 16.56 117.705 16.7627 117.641 16.976C117.577 17.168 117.47 17.3813 117.321 17.616C117.278 17.8293 117.257 18.0213 117.257 18.192C117.278 18.3413 117.235 18.5227 117.129 18.736C117.129 18.7787 117.129 18.832 117.129 18.896C117.129 18.9387 117.129 18.9813 117.129 19.024C117.15 19.1733 117.15 19.3227 117.129 19.472C117.129 19.6 117.097 19.7387 117.033 19.888C117.033 20.1227 117.033 20.2933 117.033 20.4C117.054 20.5067 117.107 20.6773 117.193 20.912C117.065 21.0613 116.937 21.2107 116.809 21.36C116.681 21.5093 116.553 21.6693 116.425 21.84ZM122.465 20.336C122.017 20.4853 121.644 20.56 121.345 20.56C121.047 20.5387 120.716 20.4 120.353 20.144C119.927 19.7173 119.777 19.2907 119.905 18.864C120.055 18.416 120.439 17.9787 121.057 17.552C121.484 17.296 121.793 17.168 121.985 17.168C122.199 17.1467 122.508 17.2213 122.913 17.392C123.639 17.84 123.959 18.3413 123.873 18.896C123.788 19.4293 123.319 19.9093 122.465 20.336ZM125.577 29.456C125.492 29.456 125.364 29.456 125.193 29.456C125.044 29.4773 124.916 29.392 124.809 29.2C124.724 29.0933 124.596 28.88 124.425 28.56C124.254 28.2613 124.222 27.8347 124.329 27.28C124.436 26.9173 124.521 26.5547 124.585 26.192C124.649 25.8507 124.681 25.5947 124.681 25.424C124.681 25.3387 124.702 25.168 124.745 24.912C124.809 24.6773 124.841 24.5067 124.841 24.4C124.948 24.2293 125.033 23.9947 125.097 23.696C125.161 23.3973 125.193 23.1307 125.193 22.896C125.193 22.64 125.321 22.4053 125.577 22.192C125.577 22.0213 125.609 21.808 125.673 21.552C125.758 21.296 125.801 21.1253 125.801 21.04C125.865 20.7413 126.004 20.2187 126.217 19.472C126.452 18.704 126.729 17.84 127.049 16.88C127.39 15.92 127.721 14.9813 128.041 14.064C128.361 13.1467 128.649 12.368 128.905 11.728C129.161 11.1307 129.374 10.576 129.545 10.064C129.716 9.552 129.801 9.18933 129.801 8.976C129.801 8.89067 129.822 8.82667 129.865 8.784C129.908 8.72 130.004 8.60267 130.153 8.432C130.366 8.21867 130.644 8.144 130.985 8.208C131.348 8.25067 131.646 8.35733 131.881 8.528C132.052 8.80533 132.169 9.06133 132.233 9.296C132.318 9.50933 132.318 9.85067 132.233 10.32C132.233 10.64 132.158 10.9387 132.009 11.216C131.86 11.472 131.721 11.6853 131.593 11.856C131.486 12.0053 131.454 12.0693 131.497 12.048C132.436 11.472 133.278 11.1627 134.025 11.12C134.793 11.056 135.433 11.184 135.945 11.504C136.478 11.8027 136.884 12.2187 137.161 12.752C137.438 13.2853 137.577 13.8613 137.577 14.48C137.577 14.736 137.492 15.0773 137.321 15.504C137.15 15.9307 136.958 16.336 136.745 16.72C136.532 17.0827 136.361 17.328 136.233 17.456C136.148 17.456 136.062 17.5307 135.977 17.68C135.892 17.808 135.806 17.9573 135.721 18.128C135.55 18.3413 135.262 18.5867 134.857 18.864C134.473 19.12 134.078 19.3333 133.673 19.504C133.268 19.6533 132.98 19.696 132.809 19.632C132.809 19.632 132.777 19.6533 132.713 19.696C132.67 19.7387 132.649 19.8133 132.649 19.92C132.649 19.9627 132.5 20.048 132.201 20.176C131.902 20.304 131.55 20.4213 131.145 20.528C130.74 20.6347 130.366 20.688 130.025 20.688C129.577 20.688 129.257 20.6027 129.065 20.432C129.022 20.4747 128.969 20.5387 128.905 20.624C128.862 20.7093 128.841 20.784 128.841 20.848C128.841 20.976 128.788 21.1787 128.681 21.456C128.596 21.7333 128.489 21.9787 128.361 22.192C128.233 22.4267 128.116 22.544 128.009 22.544C128.009 22.544 127.988 22.576 127.945 22.64C127.902 22.704 127.924 22.7893 128.009 22.896C128.009 22.896 127.998 23.0133 127.977 23.248C127.977 23.504 127.924 23.7173 127.817 23.888C127.817 24.0587 127.785 24.3147 127.721 24.656C127.657 24.9973 127.582 25.2533 127.497 25.424C127.497 25.68 127.454 25.9253 127.369 26.16C127.305 26.416 127.23 26.544 127.145 26.544C127.06 26.5653 127.006 26.6933 126.985 26.928C126.964 27.184 126.953 27.3653 126.953 27.472C126.932 28.0053 126.761 28.464 126.441 28.848C126.121 29.2533 125.833 29.456 125.577 29.456ZM129.673 18.256C129.844 18.256 130.153 18.1813 130.601 18.032C131.049 17.8827 131.518 17.7013 132.009 17.488C132.5 17.2533 132.884 17.0187 133.161 16.784C133.716 16.2933 134.142 15.8133 134.441 15.344C134.761 14.8747 134.74 14.352 134.377 13.776C134.206 13.4773 133.929 13.36 133.545 13.424C133.182 13.4667 132.777 13.6373 132.329 13.936C131.881 14.2347 131.422 14.608 130.953 15.056C130.697 15.3333 130.462 15.6533 130.249 16.016C130.036 16.3787 129.854 16.7307 129.705 17.072C129.577 17.4133 129.502 17.7013 129.481 17.936C129.46 18.1493 129.524 18.256 129.673 18.256ZM138.127 28.656C137.359 28.8053 136.623 28.8267 135.919 28.72C135.215 28.6347 134.628 28.4533 134.159 28.176C133.668 27.8987 133.37 27.5893 133.263 27.248C133.135 26.7573 133.199 26.3947 133.455 26.16C133.711 25.9253 134.02 25.7867 134.383 25.744C134.724 25.7013 134.948 25.744 135.055 25.872C135.226 25.9787 135.492 26.1387 135.855 26.352C136.239 26.5653 136.708 26.6187 137.263 26.512C137.754 26.4053 138.191 26.1707 138.575 25.808C138.959 25.4453 139.3 25.0613 139.599 24.656C139.77 24.4 140.058 23.9413 140.463 23.28C140.868 22.6187 141.284 21.8933 141.711 21.104C142.159 20.2933 142.532 19.5467 142.831 18.864C142.895 18.6933 142.97 18.4907 143.055 18.256C143.14 18.0213 143.247 17.8293 143.375 17.68C143.503 17.424 143.61 17.1893 143.695 16.976C143.802 16.7413 143.866 16.5813 143.887 16.496C143.908 16.3893 144.004 16.176 144.175 15.856C144.346 15.536 144.506 15.216 144.655 14.896C144.762 14.576 144.922 14.1067 145.135 13.488C145.348 12.8693 145.562 12.368 145.775 11.984C146.031 11.4933 146.234 11.0987 146.383 10.8C146.554 10.48 146.735 10.288 146.927 10.224C147.119 10.0747 147.3 10 147.471 10C147.642 10 147.844 10.064 148.079 10.192C148.335 10.448 148.538 10.704 148.687 10.96C148.858 11.1947 148.922 11.4933 148.879 11.856C148.858 12.1973 148.687 12.6667 148.367 13.264C148.196 13.776 148.004 14.2453 147.791 14.672C147.599 15.0773 147.45 15.344 147.343 15.472C147.236 15.728 147.108 16.016 146.959 16.336C146.831 16.6347 146.714 16.912 146.607 17.168C146.223 18.0213 145.892 18.7147 145.615 19.248C145.338 19.7813 145.092 20.272 144.879 20.72C144.666 21.168 144.442 21.6907 144.207 22.288C143.716 23.0773 143.236 23.824 142.767 24.528C142.319 25.2533 141.839 25.9253 141.327 26.544C141.114 26.736 140.804 26.9813 140.399 27.28C140.015 27.6 139.61 27.888 139.183 28.144C138.778 28.4213 138.426 28.592 138.127 28.656ZM142.127 21.424C141.807 21.3813 141.455 21.168 141.071 20.784C140.708 20.4 140.399 19.9947 140.143 19.568C139.908 19.1413 139.812 18.8427 139.855 18.672C139.855 18.5653 139.855 18.48 139.855 18.416C139.855 18.352 139.855 18.32 139.855 18.32C139.727 18.32 139.62 18.1387 139.535 17.776C139.471 17.392 139.418 16.912 139.375 16.336C139.354 15.76 139.343 15.1627 139.343 14.544C139.364 13.9253 139.396 13.36 139.439 12.848C139.524 12.4853 139.567 12.0907 139.567 11.664C139.567 11.216 139.578 10.864 139.599 10.608C139.578 10.2667 139.642 9.98933 139.791 9.776C139.962 9.56267 140.09 9.424 140.175 9.36C140.964 9.01867 141.54 9.2 141.903 9.904C142.266 10.608 142.394 11.728 142.287 13.264C142.244 14.1173 142.223 14.9387 142.223 15.728C142.223 16.496 142.298 17.1573 142.447 17.712C142.596 18.2667 142.852 18.6613 143.215 18.896C143.364 18.9813 143.418 19.1627 143.375 19.44C143.332 19.7173 143.236 20.016 143.087 20.336C142.938 20.6347 142.767 20.9013 142.575 21.136C142.404 21.3493 142.255 21.4453 142.127 21.424Z" fill="#2C2C2C"/>
</svg>
