<svg width="268" height="26" viewBox="0 0 268 26" fill="none" xmlns="http://www.w3.org/2000/svg">
<path d="M3.304 19.584C3.064 19.488 2.784 19.352 2.464 19.176C2.144 19.016 1.84 18.8 1.552 18.528C1.264 18.256 1.04 17.928 0.88 17.544C0.72 17.08 0.608 16.624 0.544 16.176C0.496 15.728 0.48 15.208 0.496 14.616C0.496 13.784 0.552 13.064 0.664 12.456C0.792 11.832 0.984 11.2 1.24 10.56C1.272 10.512 1.328 10.376 1.408 10.152C1.504 9.912 1.608 9.656 1.72 9.384C1.848 9.112 1.944 8.904 2.008 8.76C2.136 8.488 2.328 8.128 2.584 7.68C2.856 7.216 3.144 6.768 3.448 6.336C3.912 5.648 4.304 5.088 4.624 4.656C4.944 4.208 5.248 3.832 5.536 3.528C5.84 3.224 6.168 2.928 6.52 2.64C6.888 2.352 7.344 2.024 7.888 1.656C8.24 1.4 8.688 1.24 9.232 1.176C9.792 1.112 10.336 1.2 10.864 1.44C11.392 1.664 11.784 2.096 12.04 2.736C12.216 3.072 12.296 3.496 12.28 4.008C12.264 4.504 12.168 5.04 11.992 5.616C11.816 6.176 11.592 6.704 11.32 7.2C11.048 7.696 10.744 8.096 10.408 8.4C10.2 8.592 9.92 8.624 9.568 8.496C9.232 8.368 8.952 8.2 8.728 7.992C8.584 7.72 8.504 7.56 8.488 7.512C8.488 7.464 8.52 7.432 8.584 7.416C8.68 7.304 8.808 7.112 8.968 6.84C9.128 6.568 9.288 6.28 9.448 5.976C9.608 5.656 9.72 5.4 9.784 5.208C9.912 4.536 10 4.096 10.048 3.888C10.096 3.664 10.048 3.48 9.904 3.336C9.84 3.272 9.744 3.248 9.616 3.264C9.504 3.28 9.312 3.36 9.04 3.504C8.672 3.664 8.232 3.992 7.72 4.488C7.224 4.968 6.728 5.544 6.232 6.216C5.592 7.064 5.056 7.816 4.624 8.472C4.192 9.128 3.864 9.8 3.64 10.488C3.608 10.552 3.552 10.672 3.472 10.848C3.408 11.024 3.376 11.112 3.376 11.112C3.392 11.176 3.368 11.336 3.304 11.592C3.24 11.832 3.168 12.04 3.088 12.216C2.912 12.952 2.808 13.664 2.776 14.352C2.744 15.024 2.784 15.616 2.896 16.128C3.024 16.624 3.208 16.992 3.448 17.232C3.656 17.376 3.92 17.424 4.24 17.376C4.56 17.328 4.928 17.216 5.344 17.04C5.76 16.864 6.208 16.672 6.688 16.464C7.072 16.304 7.424 16.128 7.744 15.936C8.064 15.744 8.304 15.576 8.464 15.432C8.592 15.336 8.752 15.24 8.944 15.144C9.152 15.032 9.328 14.976 9.472 14.976C9.696 14.896 9.864 14.96 9.976 15.168C10.088 15.376 10.144 15.64 10.144 15.96C10.144 16.184 9.984 16.456 9.664 16.776C9.344 17.096 8.992 17.368 8.608 17.592C8.48 17.72 8.304 17.84 8.08 17.952C7.872 18.048 7.656 18.136 7.432 18.216C7.096 18.472 6.68 18.72 6.184 18.96C5.688 19.2 5.184 19.384 4.672 19.512C4.176 19.64 3.72 19.664 3.304 19.584ZM13.5867 17.832C13.3787 17.832 13.2107 17.792 13.0827 17.712C12.9707 17.632 12.8267 17.52 12.6507 17.376C12.3467 17.056 12.0987 16.712 11.9067 16.344C11.7307 15.976 11.6667 15.656 11.7147 15.384C11.7627 15.256 11.7787 15.136 11.7627 15.024C11.7627 14.896 11.7627 14.832 11.7627 14.832C11.6827 14.752 11.6587 14.704 11.6907 14.688C11.7227 14.656 11.7547 14.608 11.7867 14.544C11.8827 14.544 11.9147 14.456 11.8827 14.28C11.8507 14.152 11.8987 13.88 12.0267 13.464C12.1707 13.032 12.3627 12.624 12.6027 12.24C12.6987 12.08 12.8427 11.872 13.0347 11.616C13.2267 11.344 13.4347 11.08 13.6587 10.824C13.8987 10.552 14.1147 10.336 14.3067 10.176C14.7067 9.84 15.0747 9.568 15.4107 9.36C15.7627 9.152 16.1147 9.008 16.4667 8.928C16.8187 8.848 17.1787 8.808 17.5467 8.808C17.9307 8.808 18.2427 8.936 18.4827 9.192C18.8507 9.352 19.1067 9.568 19.2507 9.84C19.4107 10.112 19.5147 10.464 19.5627 10.896C19.6107 11.376 19.5627 11.968 19.4187 12.672C19.2747 13.36 18.8827 14.16 18.2427 15.072C17.8427 15.648 17.4507 16.096 17.0667 16.416C16.6827 16.736 16.2587 17.032 15.7947 17.304C15.4587 17.528 15.0987 17.664 14.7147 17.712C14.3307 17.76 13.9547 17.8 13.5867 17.832ZM16.0347 14.904C16.3867 14.6 16.6347 14.264 16.7787 13.896C16.9387 13.528 17.1067 13.096 17.2827 12.6C17.3467 12.504 17.3867 12.344 17.4027 12.12C17.4347 11.896 17.4427 11.68 17.4267 11.472C17.4107 11.248 17.3547 11.12 17.2587 11.088C17.1147 10.976 16.9707 10.952 16.8267 11.016C16.6827 11.064 16.4987 11.168 16.2747 11.328C15.7947 11.728 15.3467 12.192 14.9307 12.72C14.5307 13.232 14.2507 13.864 14.0907 14.616C14.0427 15.016 14.0827 15.32 14.2107 15.528C14.3547 15.72 14.5787 15.776 14.8827 15.696C15.2027 15.6 15.5867 15.336 16.0347 14.904ZM18.2613 25.56C17.9093 25.56 17.5892 25.488 17.3012 25.344C16.9972 25.2 16.6692 24.976 16.3172 24.672C16.2052 24.48 16.0852 24.28 15.9572 24.072C15.8132 23.88 15.6692 23.688 15.5252 23.496C15.4772 23.176 15.4772 22.896 15.5252 22.656C15.5572 22.432 15.6772 22.208 15.8852 21.984C16.2532 21.536 16.6932 21.144 17.2052 20.808C17.7173 20.488 18.2933 20.216 18.9333 19.992C19.0133 19.96 19.1093 19.92 19.2213 19.872C19.3333 19.824 19.4453 19.8 19.5573 19.8C19.6373 19.752 19.7253 19.696 19.8213 19.632C19.9173 19.568 20.0213 19.552 20.1333 19.584C20.1653 19.504 20.2133 19.456 20.2773 19.44C20.3413 19.44 20.4053 19.456 20.4693 19.488C20.5173 19.456 20.5733 19.432 20.6373 19.416C20.7173 19.4 20.8133 19.376 20.9253 19.344C21.0373 19.312 21.1653 19.272 21.3092 19.224C21.4693 19.176 21.6533 19.12 21.8613 19.056C21.8933 18.528 21.8853 18.128 21.8373 17.856C21.8053 17.568 21.7173 17.36 21.5733 17.232C21.3813 17.04 21.2533 16.824 21.1893 16.584C21.1413 16.328 21.0533 16.08 20.9253 15.84C20.9253 15.536 20.9973 15.352 21.1413 15.288C21.3013 15.224 21.5093 15.144 21.7653 15.048C22.1653 14.856 22.5893 14.592 23.0373 14.256C23.4853 13.92 23.9093 13.552 24.3093 13.152C24.7253 12.752 25.0613 12.368 25.3173 12C25.4933 11.728 25.5093 11.472 25.3653 11.232C25.2213 10.976 24.9893 10.832 24.6693 10.8C24.4613 10.8 24.1733 10.896 23.8053 11.088C23.4533 11.264 23.0533 11.536 22.6053 11.904C22.2533 12.048 21.9733 12.072 21.7653 11.976C21.5573 11.864 21.3893 11.584 21.2613 11.136C21.3093 10.784 21.3733 10.536 21.4533 10.392C21.5333 10.232 21.6293 10.096 21.7413 9.984C21.8693 9.872 21.9973 9.72 22.1253 9.528C22.2693 9.432 22.4053 9.328 22.5333 9.216C22.6773 9.104 22.8293 9.008 22.9893 8.928C23.0853 8.864 23.1893 8.816 23.3013 8.784C23.4133 8.752 23.5333 8.736 23.6613 8.736C23.7413 8.736 23.8293 8.72 23.9253 8.688C24.0213 8.64 24.1413 8.616 24.2853 8.616C25.1493 8.648 25.8293 8.984 26.3253 9.624C26.7893 10.216 27.0053 10.816 26.9733 11.424C26.9573 12.032 26.6693 12.8 26.1093 13.728C25.9653 13.952 25.7653 14.184 25.5093 14.424C25.2533 14.664 24.9653 14.904 24.6453 15.144C24.3413 15.368 24.0533 15.576 23.7812 15.768C23.5093 15.944 23.2933 16.088 23.1333 16.2C23.2453 16.408 23.3573 16.672 23.4693 16.992C23.5813 17.296 23.6773 17.616 23.7573 17.952C23.8533 18.272 23.9013 18.568 23.9013 18.84C24.0293 18.808 24.1733 18.776 24.3333 18.744C24.4933 18.728 24.6293 18.72 24.7413 18.72C24.9653 18.88 25.1813 19.048 25.3893 19.224C25.6133 19.4 25.7253 19.632 25.7253 19.92C25.7573 20.032 25.7253 20.184 25.6293 20.376C25.5333 20.568 25.3733 20.68 25.1493 20.712C24.9413 20.744 24.6773 20.752 24.3573 20.736C24.0373 20.72 23.7573 20.768 23.5173 20.88C23.3733 21.12 23.2293 21.432 23.0853 21.816C22.9413 22.216 22.7333 22.648 22.4613 23.112C22.1893 23.592 21.7653 24.072 21.1893 24.552C20.9333 24.776 20.6853 24.952 20.4453 25.08C20.2053 25.224 20.0133 25.296 19.8693 25.296C19.5493 25.376 19.2533 25.44 18.9813 25.488C18.7253 25.536 18.4853 25.56 18.2613 25.56ZM18.2613 24C18.4053 23.984 18.5493 23.96 18.6933 23.928C18.8533 23.896 19.0133 23.84 19.1733 23.76C19.3333 23.68 19.4853 23.584 19.6293 23.472C19.8533 23.296 20.1013 23.04 20.3733 22.704C20.6613 22.384 20.8213 22.08 20.8533 21.792C20.8693 21.712 20.8773 21.64 20.8773 21.576C20.8933 21.512 20.9093 21.456 20.9253 21.408C20.7813 21.424 20.6293 21.432 20.4693 21.432C20.3093 21.432 20.1653 21.448 20.0373 21.48C19.5093 21.656 19.0213 21.872 18.5732 22.128C18.1412 22.384 17.8372 22.616 17.6612 22.824C17.5492 22.968 17.4452 23.112 17.3492 23.256C17.2372 23.4 17.1332 23.544 17.0372 23.688C17.1812 23.768 17.3572 23.84 17.5652 23.904C17.7732 23.984 18.0053 24.016 18.2613 24ZM28.2025 16.32C28.1385 16.192 28.1225 16.048 28.1545 15.888C28.1865 15.712 28.1145 15.56 27.9385 15.432C28.0185 14.952 28.0825 14.52 28.1305 14.136C28.1945 13.752 28.2745 13.392 28.3705 13.056C28.4505 12.816 28.5385 12.584 28.6345 12.36C28.7465 12.136 28.8825 11.904 29.0425 11.664C29.2185 11.424 29.4185 11.176 29.6425 10.92C29.7065 10.84 29.7705 10.768 29.8345 10.704C29.9145 10.64 29.9865 10.576 30.0505 10.512C30.0825 10.464 30.1145 10.416 30.1465 10.368C30.1785 10.32 30.2105 10.28 30.2425 10.248C30.4345 10.008 30.6585 9.8 30.9145 9.624C31.1865 9.432 31.4665 9.272 31.7545 9.144C32.0585 9.016 32.3465 8.912 32.6185 8.832C32.7785 8.784 32.9225 8.744 33.0505 8.712C33.1785 8.68 33.3065 8.664 33.4345 8.664C33.5625 8.664 33.7065 8.68 33.8665 8.712C33.8665 8.632 33.8425 8.536 33.7945 8.424C33.7625 8.296 33.7465 8.176 33.7465 8.064C33.7785 7.984 33.7865 7.888 33.7705 7.776C33.7705 7.648 33.7545 7.544 33.7225 7.464C33.5945 7.304 33.5305 7.112 33.5305 6.888C33.5465 6.664 33.4665 6.456 33.2905 6.264C33.3225 5.976 33.2425 5.728 33.0505 5.52C32.8745 5.296 32.6345 5.128 32.3305 5.016C32.0425 4.888 31.7385 4.824 31.4185 4.824C31.2105 4.824 31.0105 4.848 30.8185 4.896C30.6425 4.928 30.4825 5 30.3385 5.112C30.1945 5.128 29.9945 5.144 29.7385 5.16C29.4985 5.16 29.3145 5.104 29.1865 4.992C28.8825 4.656 28.6985 4.392 28.6345 4.2C28.5705 3.992 28.5865 3.816 28.6825 3.672C28.8105 3.512 28.9865 3.376 29.2105 3.264C29.4505 3.136 29.6985 2.984 29.9545 2.808C30.1145 2.872 30.2425 2.864 30.3385 2.784C30.4505 2.704 30.5945 2.696 30.7705 2.76C30.9945 2.712 31.2025 2.704 31.3945 2.736C31.5865 2.752 31.7785 2.784 31.9705 2.832C32.0345 2.848 32.0905 2.864 32.1385 2.88C32.2025 2.88 32.2665 2.888 32.3305 2.904C32.9385 3 33.4825 3.264 33.9625 3.696C34.4585 4.112 34.8345 4.584 35.0905 5.112C35.1705 5.272 35.2585 5.448 35.3545 5.64C35.4505 5.816 35.5305 5.992 35.5945 6.168C35.6585 6.312 35.7145 6.536 35.7625 6.84C35.8265 7.144 35.8745 7.472 35.9065 7.824C35.9545 8.16 35.9865 8.472 36.0025 8.76C36.0025 8.872 36.0025 8.976 36.0025 9.072C36.0025 9.168 35.9945 9.256 35.9785 9.336C35.7865 10.472 35.4665 11.648 35.0185 12.864C34.5865 14.08 34.0745 15.184 33.4825 16.176C33.3065 16.48 33.0825 16.76 32.8105 17.016C32.5545 17.272 32.2665 17.488 31.9465 17.664C31.6585 17.824 31.3465 17.944 31.0105 18.024C30.6905 18.12 30.3625 18.176 30.0265 18.192C29.7865 18 29.5465 17.824 29.3065 17.664C29.0665 17.488 28.8505 17.296 28.6585 17.088C28.4665 16.88 28.3145 16.624 28.2025 16.32ZM30.3385 16.224C30.4185 16.192 30.4905 16.16 30.5545 16.128C30.6345 16.096 30.6905 16.048 30.7225 15.984C30.9625 15.808 31.2105 15.544 31.4665 15.192C31.7385 14.84 31.9865 14.472 32.2105 14.088C32.4505 13.704 32.6185 13.384 32.7145 13.128C32.7625 12.984 32.8265 12.8 32.9065 12.576C32.9865 12.352 33.0665 12.192 33.1465 12.096C33.2585 11.888 33.3545 11.656 33.4345 11.4C33.5145 11.144 33.5465 10.904 33.5305 10.68C32.8905 10.936 32.3305 11.288 31.8505 11.736C31.3865 12.168 30.9865 12.688 30.6505 13.296C30.6025 13.632 30.5065 13.952 30.3625 14.256C30.2345 14.56 30.1545 14.888 30.1225 15.24C30.0585 15.384 30.0185 15.512 30.0025 15.624C30.0025 15.736 30.0185 15.872 30.0505 16.032C30.0825 16.08 30.1225 16.12 30.1705 16.152C30.2185 16.184 30.2745 16.208 30.3385 16.224ZM39.1795 17.664C39.0515 17.696 38.8835 17.712 38.6755 17.712C38.4675 17.696 38.2835 17.672 38.1235 17.64C37.9795 17.592 37.9075 17.544 37.9075 17.496C37.9075 17.416 37.8675 17.376 37.7875 17.376C37.7875 17.376 37.6995 17.312 37.5235 17.184C37.3475 17.04 37.1875 16.936 37.0435 16.872C36.8995 16.648 36.8035 16.392 36.7555 16.104C36.7235 15.8 36.8195 15.272 37.0435 14.52C37.0595 14.008 37.2035 13.472 37.4755 12.912C37.7475 12.336 38.0915 11.776 38.5075 11.232C38.9235 10.688 39.3555 10.208 39.8035 9.792C40.2515 9.36 40.6515 9.04 41.0035 8.832C41.2275 8.608 41.5235 8.488 41.8915 8.472C42.2755 8.456 42.6115 8.528 42.8995 8.688C43.0595 8.768 43.2355 8.928 43.4275 9.168C43.6195 9.408 43.8035 9.664 43.9795 9.936C44.1555 10.192 44.2915 10.424 44.3875 10.632C44.4355 10.808 44.4755 10.968 44.5075 11.112C44.5555 11.24 44.5875 11.4 44.6035 11.592C44.6195 11.784 44.6035 12.072 44.5555 12.456C44.4755 12.744 44.4035 13.04 44.3395 13.344C44.2915 13.632 44.2675 13.928 44.2675 14.232C44.2355 14.536 44.2675 14.752 44.3635 14.88C44.4755 15.008 44.6355 15.016 44.8435 14.904C45.0355 14.808 45.2355 14.8 45.4435 14.88C45.6515 14.944 45.7955 15.072 45.8755 15.264C45.9715 15.44 45.9475 15.672 45.8035 15.96C45.7075 16.168 45.5555 16.368 45.3475 16.56C45.1395 16.752 44.9075 16.912 44.6515 17.04C44.3955 17.152 44.1475 17.208 43.9075 17.208C43.7315 17.208 43.5555 17.144 43.3795 17.016C43.2035 16.872 43.0435 16.68 42.8995 16.44C42.7555 16.2 42.6355 15.936 42.5395 15.648L42.3955 15.096L41.5315 15.888C41.3235 16.112 41.1155 16.32 40.9075 16.512C40.7155 16.688 40.5955 16.816 40.5475 16.896C40.4675 17.04 40.3075 17.168 40.0675 17.28C39.8435 17.392 39.5475 17.52 39.1795 17.664ZM39.8275 15.36C40.0995 15.2 40.3315 15.008 40.5235 14.784C40.7315 14.56 40.9315 14.312 41.1235 14.04C41.3155 13.752 41.5235 13.448 41.7475 13.128C42.0195 12.76 42.2115 12.464 42.3235 12.24C42.4515 12.016 42.5475 11.776 42.6115 11.52C42.5475 11.344 42.4595 11.16 42.3475 10.968C42.2355 10.76 42.1235 10.648 42.0115 10.632C41.7875 10.632 41.5155 10.768 41.1955 11.04C40.8915 11.312 40.5555 11.704 40.1875 12.216C40.1235 12.296 40.0435 12.424 39.9475 12.6C39.8515 12.776 39.7555 12.944 39.6595 13.104C39.5795 13.248 39.5235 13.344 39.4915 13.392C39.4435 13.456 39.3715 13.608 39.2755 13.848C39.1955 14.072 39.1235 14.304 39.0595 14.544C38.9955 14.768 38.9635 14.928 38.9635 15.024C38.9635 15.12 38.9715 15.224 38.9875 15.336C39.0195 15.448 39.0995 15.52 39.2275 15.552C39.3555 15.584 39.5555 15.52 39.8275 15.36ZM49.5098 17.784C48.8858 17.528 48.4538 17.112 48.2138 16.536C47.9738 15.96 47.9098 15.192 48.0218 14.232C48.0538 13.736 48.0378 13.408 47.9738 13.248C47.9098 13.072 47.7898 12.904 47.6138 12.744C47.5658 12.68 47.4538 12.576 47.2778 12.432C47.1018 12.272 47.0218 12.152 47.0378 12.072C47.0218 11.96 47.0458 11.824 47.1098 11.664C47.1738 11.488 47.2298 11.392 47.2778 11.376C47.3898 11.328 47.5018 11.272 47.6138 11.208C47.7418 11.144 47.8378 11.128 47.9018 11.16C47.9658 11.16 48.0618 11.2 48.1898 11.28C48.3338 11.36 48.4058 11.432 48.4058 11.496C48.4698 11.608 48.5658 11.56 48.6938 11.352C48.8378 11.144 48.9898 10.88 49.1498 10.56C49.3098 10.304 49.5098 10.064 49.7498 9.84C49.9898 9.616 50.2298 9.416 50.4698 9.24C50.7258 9.048 50.9418 8.904 51.1178 8.808C51.1978 8.776 51.3498 8.728 51.5738 8.664C51.8138 8.6 52.0618 8.552 52.3178 8.52C52.5738 8.472 52.7658 8.456 52.8938 8.472C53.1818 8.488 53.4858 8.608 53.8058 8.832C54.1258 9.056 54.3738 9.264 54.5498 9.456C54.7578 9.6 54.8938 9.824 54.9578 10.128C55.0378 10.416 55.0698 10.72 55.0538 11.04C55.0378 11.36 54.9738 11.632 54.8618 11.856C54.8138 12.016 54.6458 12.24 54.3578 12.528C54.0698 12.816 53.7498 13.096 53.3978 13.368C53.0618 13.624 52.7738 13.8 52.5338 13.896C52.3258 13.944 52.0778 13.984 51.7898 14.016C51.5018 14.032 51.2298 14.032 50.9738 14.016C50.7338 13.984 50.5658 13.944 50.4698 13.896C50.3578 13.832 50.2618 13.856 50.1818 13.968C50.1178 14.064 50.0618 14.336 50.0138 14.784C49.9978 14.96 49.9978 15.112 50.0138 15.24C50.0458 15.368 50.0778 15.464 50.1098 15.528C50.2218 15.72 50.3338 15.864 50.4458 15.96C50.5578 16.04 50.7658 16.064 51.0698 16.032C51.3738 16 51.6778 15.816 51.9818 15.48C52.3018 15.128 52.5898 14.848 52.8458 14.64C52.9098 14.528 53.0458 14.456 53.2538 14.424C53.4778 14.376 53.7418 14.392 54.0458 14.472C54.2218 14.584 54.3018 14.76 54.2858 15C54.2858 15.24 54.1578 15.592 53.9018 16.056C53.8538 16.168 53.7178 16.336 53.4938 16.56C53.2858 16.768 53.0538 16.984 52.7978 17.208C52.5578 17.416 52.3578 17.568 52.1978 17.664C51.7178 17.92 51.2458 18.04 50.7818 18.024C50.3178 18.008 49.8938 17.928 49.5098 17.784ZM51.2858 12.384C51.5258 12.32 51.7258 12.256 51.8858 12.192C52.0618 12.128 52.2298 12.024 52.3898 11.88C52.5498 11.736 52.7338 11.52 52.9418 11.232C53.0058 11.056 53.0378 10.904 53.0378 10.776C53.0538 10.648 53.0458 10.568 53.0138 10.536C52.8858 10.408 52.7418 10.368 52.5818 10.416C52.4378 10.448 52.2778 10.528 52.1018 10.656C51.9898 10.704 51.8298 10.808 51.6218 10.968C51.4298 11.112 51.2378 11.28 51.0458 11.472C50.8698 11.648 50.7258 11.816 50.6138 11.976C50.5178 12.12 50.5018 12.208 50.5658 12.24C50.5338 12.304 50.6218 12.344 50.8298 12.36C51.0538 12.376 51.2058 12.384 51.2858 12.384ZM65.8996 17.496C65.8676 17.464 65.8276 17.44 65.7796 17.424C65.7476 17.392 65.7156 17.376 65.6836 17.376C65.4436 17.168 65.3076 16.984 65.2756 16.824C65.2596 16.648 65.2676 16.472 65.2996 16.296C65.3316 16.12 65.2996 15.936 65.2036 15.744C65.2676 15.52 65.3316 15.288 65.3956 15.048C65.4756 14.808 65.5476 14.56 65.6116 14.304C65.7076 14.016 65.8036 13.72 65.8996 13.416C65.9956 13.112 66.0916 12.808 66.1876 12.504C66.2996 12.2 66.3956 11.904 66.4756 11.616C66.3316 11.712 66.1876 11.856 66.0436 12.048C65.9156 12.224 65.7876 12.36 65.6596 12.456C65.5956 12.504 65.5236 12.576 65.4436 12.672C65.3636 12.752 65.2836 12.848 65.2036 12.96C65.0436 13.168 64.8756 13.4 64.6996 13.656C64.5236 13.896 64.3956 14.08 64.3156 14.208C64.1076 14.512 63.8756 14.792 63.6196 15.048C63.3796 15.304 63.1236 15.552 62.8516 15.792C62.7396 15.888 62.6356 15.984 62.5396 16.08C62.4436 16.176 62.3396 16.272 62.2276 16.368C61.8596 16.704 61.4756 16.808 61.0756 16.68C60.6756 16.552 60.3316 16.24 60.0436 15.744C60.0276 15.456 60.0516 15.152 60.1156 14.832C60.1796 14.512 60.2676 14.192 60.3796 13.872C60.5076 13.536 60.6356 13.216 60.7636 12.912C60.8916 12.592 61.0036 12.288 61.0996 12C61.0836 11.984 61.0676 11.976 61.0516 11.976C61.0356 11.96 61.0116 11.944 60.9796 11.928C60.4356 12.456 59.9476 13.024 59.5156 13.632C59.0836 14.24 58.6916 14.88 58.3396 15.552C58.1796 15.872 58.0356 16.2 57.9076 16.536C57.7956 16.856 57.5796 17.128 57.2596 17.352C57.2436 17.352 57.2276 17.36 57.2116 17.376C57.1956 17.376 57.1796 17.384 57.1636 17.4C57.1476 17.4 57.1236 17.408 57.0916 17.424C57.0596 17.424 57.0276 17.424 56.9956 17.424C56.9156 17.44 56.8276 17.432 56.7316 17.4C56.5236 17.32 56.3316 17.152 56.1556 16.896C55.9956 16.64 55.8756 16.424 55.7956 16.248C55.8436 16.072 55.8996 15.912 55.9636 15.768C56.0436 15.608 56.1476 15.464 56.2756 15.336C56.3076 15.176 56.3636 15.04 56.4436 14.928C56.5396 14.816 56.6116 14.704 56.6596 14.592C56.8516 14.144 57.1156 13.656 57.4516 13.128C57.8036 12.6 58.2036 12.08 58.6516 11.568C59.0996 11.04 59.5716 10.576 60.0676 10.176C60.5636 9.76 61.0516 9.448 61.5316 9.24C61.5796 9.208 61.6276 9.184 61.6756 9.168C61.7236 9.152 61.7716 9.136 61.8196 9.12C62.0436 9.168 62.2356 9.232 62.3956 9.312C62.5716 9.392 62.7556 9.472 62.9476 9.552C62.9796 9.616 63.0116 9.672 63.0436 9.72C63.0756 9.768 63.1076 9.824 63.1396 9.888C63.2676 10.08 63.3236 10.328 63.3076 10.632C63.2916 10.92 63.2276 11.248 63.1156 11.616C63.0036 11.968 62.8596 12.336 62.6836 12.72C62.5716 12.944 62.4596 13.176 62.3476 13.416C62.2516 13.64 62.1396 13.864 62.0116 14.088C62.0436 14.104 62.0676 14.12 62.0836 14.136C62.0996 14.136 62.1156 14.144 62.1316 14.16C62.3716 13.888 62.6036 13.608 62.8276 13.32C63.0676 13.016 63.2916 12.72 63.4996 12.432C64.0596 11.712 64.6116 11.048 65.1556 10.44C65.6996 9.832 66.2436 9.392 66.7876 9.12C67.0116 8.992 67.2596 9 67.5316 9.144C67.8036 9.272 68.0196 9.408 68.1796 9.552C68.4356 9.792 68.5636 10.184 68.5636 10.728C68.5636 11.16 68.4916 11.656 68.3476 12.216C68.2196 12.76 68.0676 13.296 67.8916 13.824C67.7156 14.336 67.5556 14.776 67.4116 15.144C67.3956 15.224 67.3716 15.296 67.3396 15.36C67.3236 15.424 67.2996 15.488 67.2676 15.552C67.2516 15.584 67.2436 15.624 67.2436 15.672C67.2436 15.704 67.2356 15.736 67.2196 15.768C67.1556 15.992 67.1396 16.224 67.1716 16.464C67.2036 16.704 67.2276 16.936 67.2436 17.16C67.0196 17.336 66.7556 17.512 66.4516 17.688C66.4036 17.656 66.3476 17.632 66.2836 17.616C66.2356 17.6 66.1876 17.584 66.1396 17.568C66.1076 17.552 66.0676 17.544 66.0196 17.544C65.9716 17.528 65.9316 17.512 65.8996 17.496ZM77.2429 17.832C77.0349 17.832 76.8669 17.792 76.7389 17.712C76.6269 17.632 76.4829 17.52 76.3069 17.376C76.0029 17.056 75.7549 16.712 75.5629 16.344C75.3869 15.976 75.3229 15.656 75.3709 15.384C75.4189 15.256 75.4349 15.136 75.4189 15.024C75.4189 14.896 75.4189 14.832 75.4189 14.832C75.3389 14.752 75.3149 14.704 75.3469 14.688C75.3789 14.656 75.4109 14.608 75.4429 14.544C75.5389 14.544 75.5709 14.456 75.5389 14.28C75.5069 14.152 75.5549 13.88 75.6829 13.464C75.8269 13.032 76.0189 12.624 76.2589 12.24C76.3549 12.08 76.4989 11.872 76.6909 11.616C76.8829 11.344 77.0909 11.08 77.3149 10.824C77.5549 10.552 77.7709 10.336 77.9629 10.176C78.3629 9.84 78.7309 9.568 79.0669 9.36C79.4189 9.152 79.7709 9.008 80.1229 8.928C80.4749 8.848 80.8349 8.808 81.2029 8.808C81.5869 8.808 81.8989 8.936 82.1389 9.192C82.5069 9.352 82.7629 9.568 82.9069 9.84C83.0669 10.112 83.1709 10.464 83.2189 10.896C83.2669 11.376 83.2189 11.968 83.0749 12.672C82.9309 13.36 82.5389 14.16 81.8989 15.072C81.4989 15.648 81.1069 16.096 80.7229 16.416C80.3389 16.736 79.9149 17.032 79.4509 17.304C79.1149 17.528 78.7549 17.664 78.3709 17.712C77.9869 17.76 77.6109 17.8 77.2429 17.832ZM79.6909 14.904C80.0429 14.6 80.2909 14.264 80.4349 13.896C80.5949 13.528 80.7629 13.096 80.9389 12.6C81.0029 12.504 81.0429 12.344 81.0589 12.12C81.0909 11.896 81.0989 11.68 81.0829 11.472C81.0669 11.248 81.0109 11.12 80.9149 11.088C80.7709 10.976 80.6269 10.952 80.4829 11.016C80.3389 11.064 80.1549 11.168 79.9309 11.328C79.4509 11.728 79.0029 12.192 78.5869 12.72C78.1869 13.232 77.9069 13.864 77.7469 14.616C77.6989 15.016 77.7389 15.32 77.8669 15.528C78.0109 15.72 78.2349 15.776 78.5389 15.696C78.8589 15.6 79.2429 15.336 79.6909 14.904ZM85.4342 17.208C85.1303 17.08 84.8823 16.888 84.6903 16.632C84.5143 16.36 84.4263 16.032 84.4263 15.648C84.4263 15.488 84.4583 15.216 84.5223 14.832C84.5863 14.448 84.6743 14.016 84.7863 13.536C84.8983 13.056 85.0103 12.608 85.1223 12.192C85.2823 11.904 85.3863 11.616 85.4342 11.328C85.4983 11.04 85.5303 10.864 85.5303 10.8C85.5623 10.608 85.6183 10.352 85.6983 10.032C85.7783 9.712 85.8583 9.424 85.9383 9.168C86.0343 8.896 86.0983 8.744 86.1303 8.712C86.2103 8.632 86.3463 8.584 86.5383 8.568C86.7303 8.552 86.9223 8.576 87.1143 8.64C87.3063 8.688 87.4343 8.792 87.4983 8.952C87.6743 9.144 87.7703 9.432 87.7863 9.816C87.8183 10.2 87.7463 10.648 87.5703 11.16C87.4263 11.48 87.2823 11.856 87.1383 12.288C86.9943 12.72 86.8663 13.12 86.7543 13.488C86.6583 13.84 86.6023 14.08 86.5863 14.208L85.7223 14.184C85.9943 13.928 86.2503 13.664 86.4903 13.392C86.7303 13.104 86.9063 12.88 87.0183 12.72C87.2903 12.352 87.5223 12.048 87.7143 11.808C87.9223 11.552 88.1863 11.248 88.5063 10.896C88.8263 10.528 89.1703 10.272 89.5383 10.128C89.9063 9.968 90.1783 9.888 90.3543 9.888C90.7063 9.952 91.0183 10.136 91.2903 10.44C91.5783 10.728 91.7543 11.16 91.8183 11.736C91.8183 11.96 91.7943 12.224 91.7463 12.528C91.7143 12.832 91.6983 12.984 91.6983 12.984C91.6983 12.984 91.8263 12.824 92.0823 12.504C92.3543 12.184 92.7143 11.824 93.1623 11.424C93.4663 11.2 93.7623 11.072 94.0503 11.04C94.3383 10.992 94.5943 11.088 94.8183 11.328C95.2343 11.552 95.5383 11.944 95.7303 12.504C95.9223 13.064 95.9863 13.696 95.9223 14.4C95.8743 14.816 95.8743 15.152 95.9223 15.408C95.9863 15.648 96.0503 15.864 96.1143 16.056C96.3223 16.344 96.3543 16.6 96.2103 16.824C96.0663 17.032 95.9383 17.136 95.8263 17.136C95.6663 17.136 95.4263 17.104 95.1063 17.04C94.7863 16.976 94.4903 16.864 94.2183 16.704C93.9623 16.544 93.8343 16.328 93.8343 16.056V14.568C93.8343 14.216 93.8183 13.96 93.7863 13.8C93.7703 13.624 93.7303 13.512 93.6663 13.464C93.4903 13.368 93.2743 13.44 93.0183 13.68C92.7623 13.92 92.4823 14.264 92.1783 14.712C91.8903 15.144 91.5783 15.632 91.2423 16.176C90.9383 16.672 90.6903 16.976 90.4983 17.088C90.3063 17.184 90.1223 17.176 89.9463 17.064C89.5943 16.952 89.3703 16.8 89.2743 16.608C89.1943 16.4 89.1863 16.168 89.2503 15.912C89.3303 15.64 89.4263 15.288 89.5383 14.856C89.6663 14.424 89.7863 14.008 89.8983 13.608C90.0103 13.192 90.0823 12.888 90.1143 12.696C90.0503 12.568 89.9383 12.528 89.7783 12.576C89.6343 12.608 89.4823 12.68 89.3223 12.792C89.1303 12.92 88.9223 13.056 88.6983 13.2C88.4903 13.344 88.2423 13.648 87.9543 14.112C87.7623 14.416 87.5463 14.752 87.3063 15.12C87.0663 15.472 86.8423 15.792 86.6343 16.08C86.4423 16.368 86.2823 16.568 86.1543 16.68C86.0423 16.968 85.9383 17.152 85.8423 17.232C85.7463 17.296 85.6103 17.288 85.4342 17.208ZM97.4838 16.32C97.4198 16.192 97.4038 16.048 97.4358 15.888C97.4678 15.712 97.3958 15.56 97.2198 15.432C97.2998 14.952 97.3638 14.52 97.4118 14.136C97.4758 13.752 97.5558 13.392 97.6518 13.056C97.7318 12.816 97.8198 12.584 97.9158 12.36C98.0278 12.136 98.1638 11.904 98.3238 11.664C98.4998 11.424 98.6998 11.176 98.9238 10.92C98.9878 10.84 99.0518 10.768 99.1158 10.704C99.1958 10.64 99.2678 10.576 99.3318 10.512C99.3638 10.464 99.3958 10.416 99.4278 10.368C99.4598 10.32 99.4918 10.28 99.5238 10.248C99.7158 10.008 99.9398 9.8 100.196 9.624C100.468 9.432 100.748 9.272 101.036 9.144C101.34 9.016 101.628 8.912 101.9 8.832C102.06 8.784 102.204 8.744 102.332 8.712C102.46 8.68 102.588 8.664 102.716 8.664C102.844 8.664 102.988 8.68 103.148 8.712C103.148 8.632 103.124 8.536 103.076 8.424C103.044 8.296 103.028 8.176 103.028 8.064C103.06 7.984 103.068 7.888 103.052 7.776C103.052 7.648 103.036 7.544 103.004 7.464C102.876 7.304 102.812 7.112 102.812 6.888C102.828 6.664 102.748 6.456 102.572 6.264C102.604 5.976 102.524 5.728 102.332 5.52C102.156 5.296 101.916 5.128 101.612 5.016C101.324 4.888 101.02 4.824 100.7 4.824C100.492 4.824 100.292 4.848 100.1 4.896C99.9238 4.928 99.7638 5 99.6198 5.112C99.4758 5.128 99.2758 5.144 99.0198 5.16C98.7798 5.16 98.5958 5.104 98.4678 4.992C98.1638 4.656 97.9798 4.392 97.9158 4.2C97.8518 3.992 97.8678 3.816 97.9638 3.672C98.0918 3.512 98.2678 3.376 98.4918 3.264C98.7318 3.136 98.9798 2.984 99.2358 2.808C99.3958 2.872 99.5238 2.864 99.6198 2.784C99.7318 2.704 99.8758 2.696 100.052 2.76C100.276 2.712 100.484 2.704 100.676 2.736C100.868 2.752 101.06 2.784 101.252 2.832C101.316 2.848 101.372 2.864 101.42 2.88C101.484 2.88 101.548 2.888 101.612 2.904C102.22 3 102.764 3.264 103.244 3.696C103.74 4.112 104.116 4.584 104.372 5.112C104.452 5.272 104.54 5.448 104.636 5.64C104.732 5.816 104.812 5.992 104.876 6.168C104.94 6.312 104.996 6.536 105.044 6.84C105.108 7.144 105.156 7.472 105.188 7.824C105.236 8.16 105.268 8.472 105.284 8.76C105.284 8.872 105.284 8.976 105.284 9.072C105.284 9.168 105.276 9.256 105.26 9.336C105.068 10.472 104.748 11.648 104.3 12.864C103.868 14.08 103.356 15.184 102.764 16.176C102.588 16.48 102.364 16.76 102.092 17.016C101.836 17.272 101.548 17.488 101.228 17.664C100.94 17.824 100.628 17.944 100.292 18.024C99.9718 18.12 99.6438 18.176 99.3078 18.192C99.0678 18 98.8278 17.824 98.5878 17.664C98.3478 17.488 98.1318 17.296 97.9398 17.088C97.7478 16.88 97.5958 16.624 97.4838 16.32ZM99.6198 16.224C99.6998 16.192 99.7718 16.16 99.8358 16.128C99.9158 16.096 99.9718 16.048 100.004 15.984C100.244 15.808 100.492 15.544 100.748 15.192C101.02 14.84 101.268 14.472 101.492 14.088C101.732 13.704 101.9 13.384 101.996 13.128C102.044 12.984 102.108 12.8 102.188 12.576C102.268 12.352 102.348 12.192 102.428 12.096C102.54 11.888 102.636 11.656 102.716 11.4C102.796 11.144 102.828 10.904 102.812 10.68C102.172 10.936 101.612 11.288 101.132 11.736C100.668 12.168 100.268 12.688 99.9318 13.296C99.8838 13.632 99.7878 13.952 99.6438 14.256C99.5158 14.56 99.4358 14.888 99.4038 15.24C99.3398 15.384 99.2998 15.512 99.2838 15.624C99.2838 15.736 99.2998 15.872 99.3318 16.032C99.3638 16.08 99.4038 16.12 99.4518 16.152C99.4998 16.184 99.5558 16.208 99.6198 16.224ZM110.213 17.88C109.669 18.024 109.269 18.088 109.013 18.072C108.773 18.072 108.525 17.968 108.269 17.76C108.189 17.68 108.101 17.592 108.005 17.496C107.909 17.4 107.853 17.224 107.837 16.968C107.821 16.856 107.885 16.72 108.029 16.56C108.189 16.384 108.421 16.312 108.725 16.344C108.885 16.424 109.101 16.448 109.373 16.416C109.645 16.384 109.925 16.296 110.213 16.152C110.517 16.008 110.797 15.808 111.053 15.552C111.373 15.168 111.629 14.808 111.821 14.472C112.013 14.12 112.117 13.84 112.133 13.632C112.117 13.536 112.093 13.448 112.061 13.368C112.029 13.288 111.981 13.208 111.917 13.128C111.629 13.224 111.397 13.336 111.221 13.464C111.061 13.576 110.901 13.696 110.741 13.824C110.245 14.224 109.877 14.544 109.637 14.784C109.413 15.008 109.237 15.216 109.109 15.408C108.981 15.6 108.821 15.84 108.629 16.128C108.501 16.336 108.349 16.528 108.173 16.704C107.997 16.864 107.877 16.984 107.813 17.064C107.717 17.4 107.517 17.6 107.213 17.664C106.813 17.584 106.525 17.448 106.349 17.256C106.189 17.048 106.141 16.744 106.205 16.344C106.237 16.12 106.301 15.816 106.397 15.432C106.509 15.032 106.605 14.728 106.685 14.52C107.149 13.016 107.605 11.792 108.053 10.848C108.517 9.904 108.821 9.208 108.965 8.76L109.349 8.52C109.621 8.536 109.861 8.616 110.069 8.76C110.277 8.888 110.405 9.168 110.453 9.6C110.453 9.68 110.389 9.864 110.261 10.152C110.149 10.44 110.013 10.776 109.853 11.16C109.693 11.528 109.541 11.88 109.397 12.216C109.269 12.536 109.173 12.776 109.109 12.936C109.061 13.064 109.101 13.072 109.229 12.96C109.373 12.832 109.581 12.648 109.853 12.408C110.061 12.232 110.261 12.096 110.453 12C110.645 11.888 110.805 11.808 110.933 11.76C111.157 11.664 111.373 11.608 111.581 11.592C111.805 11.576 111.973 11.56 112.085 11.544C112.629 11.56 113.021 11.664 113.261 11.856C113.517 12.048 113.677 12.264 113.741 12.504C113.821 12.744 113.861 12.944 113.861 13.104C113.941 13.36 113.981 13.616 113.981 13.872C113.997 14.128 113.973 14.384 113.909 14.64C113.861 14.768 113.757 14.968 113.597 15.24C113.437 15.496 113.253 15.76 113.045 16.032C112.853 16.304 112.645 16.512 112.421 16.656C112.277 16.8 112.061 16.96 111.773 17.136C111.501 17.312 111.221 17.472 110.933 17.616C110.645 17.744 110.405 17.832 110.213 17.88ZM115.661 18.288C115.181 18.256 114.821 18.16 114.581 18C114.357 17.824 114.181 17.52 114.053 17.088C114.053 16.736 114.085 16.44 114.149 16.2C114.229 15.944 114.293 15.704 114.341 15.48C114.469 14.92 114.589 14.512 114.701 14.256C114.813 13.984 114.941 13.672 115.085 13.32C115.165 13.144 115.245 12.944 115.325 12.72C115.405 12.496 115.477 12.28 115.541 12.072C115.621 11.816 115.685 11.584 115.733 11.376C115.797 11.152 115.861 10.936 115.925 10.728C116.005 10.456 116.077 10.184 116.141 9.912C116.205 9.64 116.269 9.352 116.333 9.048C116.605 8.76 116.893 8.64 117.197 8.688C117.501 8.736 117.829 8.96 118.181 9.36C118.309 9.664 118.373 9.912 118.373 10.104C118.389 10.296 118.349 10.512 118.253 10.752C118.221 10.832 118.165 10.984 118.085 11.208C118.005 11.416 117.909 11.672 117.797 11.976C117.701 12.264 117.589 12.576 117.461 12.912C117.317 13.328 117.173 13.752 117.029 14.184C116.901 14.6 116.789 14.968 116.693 15.288C116.597 15.592 116.533 15.8 116.501 15.912C116.405 16.168 116.333 16.4 116.285 16.608C116.237 16.816 116.189 17.088 116.141 17.424C116.173 17.552 116.149 17.696 116.069 17.856C116.005 18.016 115.869 18.16 115.661 18.288ZM126.118 18.288C126.054 18.288 125.966 18.28 125.854 18.264C125.758 18.248 125.678 18.208 125.614 18.144C125.55 18.144 125.438 18.12 125.278 18.072C125.118 18.024 124.974 17.968 124.846 17.904C124.686 17.84 124.47 17.712 124.198 17.52C123.926 17.312 123.654 17.088 123.382 16.848C123.11 16.608 122.878 16.384 122.686 16.176C122.51 15.968 122.422 15.816 122.422 15.72C122.422 15.64 122.382 15.6 122.302 15.6C122.302 15.6 122.278 15.576 122.23 15.528C122.182 15.464 122.158 15.4 122.158 15.336C122.158 15.176 122.078 15.096 121.918 15.096C121.918 15.096 121.806 15.208 121.582 15.432C121.374 15.656 121.11 15.928 120.79 16.248C120.342 16.696 120.006 17.024 119.782 17.232C119.574 17.424 119.406 17.52 119.278 17.52C119.15 17.52 118.982 17.464 118.774 17.352C118.582 17.224 118.406 17.056 118.246 16.848C118.102 16.64 118.03 16.392 118.03 16.104C118.03 16.104 118.19 15.92 118.51 15.552C118.846 15.184 119.238 14.808 119.686 14.424L120.91 13.176L120.646 12.264C120.534 12.008 120.414 11.744 120.286 11.472C120.174 11.184 120.086 10.944 120.022 10.752C119.83 10.48 119.726 10.312 119.71 10.248C119.71 10.168 119.774 10.032 119.902 9.84C120.03 9.712 120.238 9.584 120.526 9.456C120.83 9.312 121.078 9.304 121.27 9.432C121.366 9.432 121.494 9.568 121.654 9.84C121.814 10.096 121.958 10.384 122.086 10.704C122.23 11.008 122.302 11.224 122.302 11.352C122.302 11.608 122.35 11.744 122.446 11.76C122.558 11.776 122.806 11.656 123.19 11.4C123.382 11.224 123.534 11.08 123.646 10.968C123.758 10.84 123.814 10.776 123.814 10.776C123.862 10.728 124.006 10.608 124.246 10.416C124.486 10.224 124.734 10.024 124.99 9.816C125.246 9.608 125.414 9.488 125.494 9.456C125.622 9.36 125.782 9.36 125.974 9.456C126.166 9.536 126.334 9.664 126.478 9.84C126.638 10 126.718 10.168 126.718 10.344C126.718 10.536 126.662 10.752 126.55 10.992C126.438 11.216 126.222 11.416 125.902 11.592C125.614 11.8 125.39 11.968 125.23 12.096C125.086 12.224 124.934 12.368 124.774 12.528C124.614 12.672 124.358 12.896 124.006 13.2L123.382 13.704L123.766 14.352C123.83 14.464 123.918 14.592 124.03 14.736C124.158 14.88 124.278 14.984 124.39 15.048C124.486 15.176 124.654 15.344 124.894 15.552C125.134 15.744 125.366 15.92 125.59 16.08C125.814 16.24 125.942 16.32 125.974 16.32C126.038 16.32 126.11 16.344 126.19 16.392C126.27 16.44 126.366 16.496 126.478 16.56C126.606 16.688 126.662 16.896 126.646 17.184C126.63 17.456 126.566 17.712 126.454 17.952C126.358 18.176 126.246 18.288 126.118 18.288ZM133.941 14.688C133.877 14.432 133.877 14.12 133.941 13.752C134.005 13.384 134.077 13.008 134.157 12.624C134.253 12.24 134.317 11.912 134.349 11.64C134.269 11.592 134.189 11.52 134.109 11.424C134.029 11.328 133.949 11.248 133.869 11.184C133.917 10.848 133.981 10.584 134.061 10.392C134.141 10.2 134.349 10.024 134.685 9.864H134.901C134.917 9.848 134.925 9.832 134.925 9.816C134.941 9.784 134.957 9.76 134.973 9.744C135.101 9.52 135.221 9.256 135.333 8.952C135.445 8.648 135.533 8.368 135.597 8.112C135.741 7.664 135.917 7.264 136.125 6.912C136.333 6.544 136.541 6.168 136.749 5.784C136.781 5.736 136.805 5.688 136.821 5.64C136.853 5.592 136.877 5.536 136.893 5.472C137.069 5.136 137.293 4.792 137.565 4.44C137.853 4.088 138.149 3.76 138.453 3.456C138.773 3.152 139.069 2.912 139.341 2.736C139.661 2.544 139.941 2.432 140.181 2.4C140.421 2.352 140.717 2.32 141.069 2.304C141.357 2.464 141.629 2.688 141.885 2.976C142.157 3.264 142.293 3.592 142.293 3.96C142.293 4.12 142.293 4.28 142.293 4.44C142.293 4.584 142.253 4.736 142.173 4.896C142.173 5.024 142.149 5.144 142.101 5.256C142.069 5.368 142.037 5.48 142.005 5.592C141.989 5.672 141.957 5.76 141.909 5.856C141.877 5.936 141.861 6.024 141.861 6.12C141.589 6.696 141.333 7.184 141.093 7.584C140.869 7.984 140.629 8.344 140.373 8.664C140.117 8.968 139.813 9.28 139.461 9.6C139.125 9.904 138.717 10.256 138.237 10.656C138.557 10.88 138.749 11.104 138.813 11.328C138.893 11.552 138.941 11.824 138.957 12.144C138.973 12.256 138.981 12.392 138.981 12.552C138.981 12.696 138.989 12.856 139.005 13.032C139.021 13.176 139.029 13.32 139.029 13.464C139.045 13.608 139.053 13.744 139.053 13.872C139.053 13.984 139.045 14.104 139.029 14.232C139.029 14.344 139.021 14.464 139.005 14.592C139.005 14.624 139.005 14.664 139.005 14.712C139.005 14.76 138.997 14.8 138.981 14.832C138.949 15.088 138.893 15.344 138.813 15.6C138.733 15.856 138.629 16.12 138.501 16.392C138.485 16.44 138.461 16.488 138.429 16.536C138.397 16.584 138.365 16.624 138.333 16.656C138.029 17.104 137.677 17.432 137.277 17.64C136.893 17.832 136.421 17.984 135.861 18.096L135.477 18.048C135.317 17.92 135.197 17.856 135.117 17.856C135.053 17.84 134.917 17.816 134.709 17.784C134.645 17.4 134.509 17.08 134.301 16.824C134.109 16.568 134.013 16.24 134.013 15.84C134.013 15.808 134.005 15.768 133.989 15.72C133.973 15.672 133.949 15.624 133.917 15.576C133.885 15.544 133.853 15.512 133.821 15.48C133.789 15.432 133.757 15.392 133.725 15.36C133.757 15.328 133.789 15.304 133.821 15.288C133.869 15.256 133.909 15.232 133.941 15.216C133.909 15.12 133.885 15.032 133.869 14.952C133.853 14.872 133.877 14.784 133.941 14.688ZM136.197 16.176C136.661 15.936 136.965 15.624 137.109 15.24C137.269 14.856 137.341 14.432 137.325 13.968C137.309 13.504 137.253 13.024 137.157 12.528C137.141 12.432 137.125 12.328 137.109 12.216C137.093 12.104 137.085 12.008 137.085 11.928C137.069 11.848 136.997 11.768 136.869 11.688C136.757 11.592 136.677 11.512 136.629 11.448C136.565 11.496 136.501 11.576 136.437 11.688C136.389 11.8 136.341 11.936 136.293 12.096C136.213 12.384 136.141 12.72 136.077 13.104C136.029 13.488 135.997 13.872 135.981 14.256C135.981 14.624 135.989 14.96 136.005 15.264C136.037 15.552 136.085 15.76 136.149 15.888L136.197 16.176ZM138.909 5.64C138.573 6.136 138.253 6.696 137.949 7.32C137.645 7.928 137.357 8.6 137.085 9.336L137.133 9.312L138.285 8.64C138.573 8.416 138.821 8.208 139.029 8.016C139.253 7.808 139.445 7.6 139.605 7.392C139.765 7.184 139.901 6.976 140.013 6.768C140.125 6.56 140.205 6.336 140.253 6.096C140.317 5.856 140.349 5.616 140.349 5.376C140.349 5.136 140.325 4.912 140.277 4.704C140.245 4.496 140.189 4.312 140.109 4.152L140.085 4.104C139.877 4.328 139.669 4.568 139.461 4.824C139.269 5.08 139.085 5.352 138.909 5.64ZM150.72 17.496C150.688 17.464 150.648 17.44 150.6 17.424C150.568 17.392 150.536 17.376 150.504 17.376C150.264 17.168 150.128 16.984 150.096 16.824C150.08 16.648 150.088 16.472 150.12 16.296C150.152 16.12 150.12 15.936 150.024 15.744C150.088 15.52 150.152 15.288 150.216 15.048C150.296 14.808 150.368 14.56 150.432 14.304C150.528 14.016 150.624 13.72 150.72 13.416C150.816 13.112 150.912 12.808 151.008 12.504C151.12 12.2 151.216 11.904 151.296 11.616C151.152 11.712 151.008 11.856 150.864 12.048C150.736 12.224 150.608 12.36 150.48 12.456C150.416 12.504 150.344 12.576 150.264 12.672C150.184 12.752 150.104 12.848 150.024 12.96C149.864 13.168 149.696 13.4 149.52 13.656C149.344 13.896 149.216 14.08 149.136 14.208C148.928 14.512 148.696 14.792 148.44 15.048C148.2 15.304 147.944 15.552 147.672 15.792C147.56 15.888 147.456 15.984 147.36 16.08C147.264 16.176 147.16 16.272 147.048 16.368C146.68 16.704 146.296 16.808 145.896 16.68C145.496 16.552 145.152 16.24 144.864 15.744C144.848 15.456 144.872 15.152 144.936 14.832C145 14.512 145.088 14.192 145.2 13.872C145.328 13.536 145.456 13.216 145.584 12.912C145.712 12.592 145.824 12.288 145.92 12C145.904 11.984 145.888 11.976 145.872 11.976C145.856 11.96 145.832 11.944 145.8 11.928C145.256 12.456 144.768 13.024 144.336 13.632C143.904 14.24 143.512 14.88 143.16 15.552C143 15.872 142.856 16.2 142.728 16.536C142.616 16.856 142.4 17.128 142.08 17.352C142.064 17.352 142.048 17.36 142.032 17.376C142.016 17.376 142 17.384 141.984 17.4C141.968 17.4 141.944 17.408 141.912 17.424C141.88 17.424 141.848 17.424 141.816 17.424C141.736 17.44 141.648 17.432 141.552 17.4C141.344 17.32 141.152 17.152 140.976 16.896C140.816 16.64 140.696 16.424 140.616 16.248C140.664 16.072 140.72 15.912 140.784 15.768C140.864 15.608 140.968 15.464 141.096 15.336C141.128 15.176 141.184 15.04 141.264 14.928C141.36 14.816 141.432 14.704 141.48 14.592C141.672 14.144 141.936 13.656 142.272 13.128C142.624 12.6 143.024 12.08 143.472 11.568C143.92 11.04 144.392 10.576 144.888 10.176C145.384 9.76 145.872 9.448 146.352 9.24C146.4 9.208 146.448 9.184 146.496 9.168C146.544 9.152 146.592 9.136 146.64 9.12C146.864 9.168 147.056 9.232 147.216 9.312C147.392 9.392 147.576 9.472 147.768 9.552C147.8 9.616 147.832 9.672 147.864 9.72C147.896 9.768 147.928 9.824 147.96 9.888C148.088 10.08 148.144 10.328 148.128 10.632C148.112 10.92 148.048 11.248 147.936 11.616C147.824 11.968 147.68 12.336 147.504 12.72C147.392 12.944 147.28 13.176 147.168 13.416C147.072 13.64 146.96 13.864 146.832 14.088C146.864 14.104 146.888 14.12 146.904 14.136C146.92 14.136 146.936 14.144 146.952 14.16C147.192 13.888 147.424 13.608 147.648 13.32C147.888 13.016 148.112 12.72 148.32 12.432C148.88 11.712 149.432 11.048 149.976 10.44C150.52 9.832 151.064 9.392 151.608 9.12C151.832 8.992 152.08 9 152.352 9.144C152.624 9.272 152.84 9.408 153 9.552C153.256 9.792 153.384 10.184 153.384 10.728C153.384 11.16 153.312 11.656 153.168 12.216C153.04 12.76 152.888 13.296 152.712 13.824C152.536 14.336 152.376 14.776 152.232 15.144C152.216 15.224 152.192 15.296 152.16 15.36C152.144 15.424 152.12 15.488 152.088 15.552C152.072 15.584 152.064 15.624 152.064 15.672C152.064 15.704 152.056 15.736 152.04 15.768C151.976 15.992 151.96 16.224 151.992 16.464C152.024 16.704 152.048 16.936 152.064 17.16C151.84 17.336 151.576 17.512 151.272 17.688C151.224 17.656 151.168 17.632 151.104 17.616C151.056 17.6 151.008 17.584 150.96 17.568C150.928 17.552 150.888 17.544 150.84 17.544C150.792 17.528 150.752 17.512 150.72 17.496ZM159.251 17.52C158.771 17.792 158.259 17.952 157.715 18C157.187 18.032 156.691 17.96 156.227 17.784C155.763 17.592 155.387 17.312 155.099 16.944C154.939 16.736 154.787 16.408 154.643 15.96C154.499 15.496 154.475 14.872 154.571 14.088C154.667 13.352 154.891 12.608 155.243 11.856C155.611 11.104 156.059 10.44 156.587 9.864C157.115 9.288 157.691 8.896 158.315 8.688C158.539 8.608 158.763 8.552 158.987 8.52C159.227 8.472 159.539 8.464 159.923 8.496C160.291 8.544 160.619 8.64 160.907 8.784C161.195 8.912 161.403 9.056 161.531 9.216C161.787 9.472 161.955 9.72 162.035 9.96C162.115 10.2 162.147 10.432 162.131 10.656C162.051 11.168 161.819 11.72 161.435 12.312C161.067 12.904 160.547 13.344 159.875 13.632C159.603 13.744 159.283 13.816 158.915 13.848C158.547 13.88 158.043 13.832 157.403 13.704C157.019 13.624 156.763 13.664 156.635 13.824C156.523 13.984 156.475 14.296 156.491 14.76C156.523 15.048 156.587 15.304 156.683 15.528C156.795 15.736 156.995 15.88 157.283 15.96C157.651 16.024 157.915 16.032 158.075 15.984C158.235 15.92 158.435 15.832 158.675 15.72C158.803 15.64 158.923 15.552 159.035 15.456C159.163 15.36 159.283 15.264 159.395 15.168C159.523 15.072 159.627 15 159.707 14.952C159.787 14.888 159.867 14.848 159.947 14.832C160.027 14.816 160.107 14.808 160.187 14.808C160.363 14.824 160.531 14.92 160.691 15.096C160.851 15.272 160.955 15.44 161.003 15.6C161.003 15.728 160.923 15.912 160.763 16.152C160.603 16.376 160.387 16.616 160.115 16.872C159.859 17.112 159.571 17.328 159.251 17.52ZM158.939 12.168C159.051 12.12 159.211 12.008 159.419 11.832C159.643 11.656 159.843 11.472 160.019 11.28C160.195 11.072 160.283 10.912 160.283 10.8C160.283 10.624 160.163 10.472 159.923 10.344C159.699 10.216 159.403 10.192 159.035 10.272C158.907 10.304 158.755 10.392 158.579 10.536C158.403 10.68 158.227 10.848 158.051 11.04C157.875 11.216 157.723 11.392 157.595 11.568C157.467 11.728 157.379 11.856 157.331 11.952C157.395 12.032 157.523 12.096 157.715 12.144C157.907 12.192 158.115 12.216 158.339 12.216C158.579 12.216 158.779 12.2 158.939 12.168ZM165.538 18.096C165.074 18.176 164.61 18.136 164.146 17.976C163.698 17.816 163.322 17.56 163.018 17.208C162.73 16.84 162.586 16.4 162.586 15.888C162.538 15.408 162.578 14.84 162.706 14.184C162.85 13.512 163.058 12.84 163.33 12.168C163.618 11.496 163.946 10.928 164.314 10.464C164.634 10.08 164.954 9.728 165.274 9.408C165.594 9.088 165.882 8.872 166.138 8.76C166.362 8.664 166.634 8.592 166.954 8.544C167.29 8.48 167.522 8.448 167.65 8.448C167.906 8.512 168.186 8.616 168.49 8.76C168.81 8.904 168.97 9.072 168.97 9.264C168.97 9.264 168.986 9.288 169.018 9.336C169.066 9.368 169.09 9.384 169.09 9.384C169.186 9.384 169.29 9.504 169.402 9.744C169.53 9.968 169.626 10.232 169.69 10.536C169.754 10.824 169.738 11.056 169.642 11.232C169.578 11.536 169.45 11.832 169.258 12.12C169.082 12.408 168.93 12.552 168.802 12.552C168.738 12.552 168.674 12.56 168.61 12.576C168.562 12.576 168.538 12.616 168.538 12.696C168.538 12.776 168.45 12.816 168.274 12.816C168.114 12.816 167.946 12.784 167.77 12.72C167.594 12.656 167.482 12.56 167.434 12.432C167.434 12.352 167.45 12.248 167.482 12.12C167.514 11.992 167.562 11.776 167.626 11.472C167.722 11.024 167.73 10.728 167.65 10.584C167.57 10.424 167.37 10.408 167.05 10.536C166.65 10.76 166.322 11.024 166.066 11.328C165.81 11.616 165.578 12.024 165.37 12.552C165.178 13.08 164.962 13.816 164.722 14.76C164.626 15.128 164.61 15.416 164.674 15.624C164.754 15.832 164.818 15.944 164.866 15.96C165.09 16.024 165.33 16.04 165.586 16.008C165.858 15.96 166.082 15.888 166.258 15.792C166.514 15.664 166.738 15.528 166.93 15.384C167.138 15.224 167.362 15.056 167.602 14.88C167.682 14.832 167.754 14.744 167.818 14.616C167.882 14.472 167.978 14.368 168.106 14.304C168.234 14.112 168.394 14.016 168.586 14.016C168.794 14 168.994 13.992 169.186 13.992C169.314 14.024 169.45 14.104 169.594 14.232C169.738 14.36 169.842 14.488 169.906 14.616C169.986 14.728 169.978 14.808 169.882 14.856C169.818 14.856 169.778 14.88 169.762 14.928C169.762 14.96 169.762 14.976 169.762 14.976C169.794 15.04 169.722 15.184 169.546 15.408C169.386 15.632 169.178 15.872 168.922 16.128C168.666 16.384 168.418 16.608 168.178 16.8C167.954 16.976 167.794 17.064 167.698 17.064C167.538 17.064 167.458 17.112 167.458 17.208C167.458 17.24 167.338 17.32 167.098 17.448C166.874 17.576 166.61 17.704 166.306 17.832C166.018 17.96 165.762 18.048 165.538 18.096ZM172.745 17.112C172.697 17.048 172.593 16.968 172.433 16.872C172.273 16.776 172.193 16.696 172.193 16.632C172.193 16.6 172.185 16.56 172.169 16.512C172.169 16.464 172.137 16.44 172.073 16.44C172.025 16.392 172.049 16.216 172.145 15.912C172.257 15.608 172.401 15.248 172.577 14.832C172.769 14.416 172.969 14.016 173.177 13.632C173.385 13.232 173.561 12.912 173.705 12.672C173.785 12.624 173.833 12.56 173.849 12.48C173.881 12.384 173.881 12.336 173.849 12.336C173.849 12.336 173.889 12.264 173.969 12.12C174.065 11.96 174.137 11.856 174.185 11.808C174.313 11.584 174.409 11.36 174.473 11.136C174.537 10.896 174.553 10.696 174.521 10.536C174.457 10.456 174.385 10.432 174.305 10.464C174.225 10.496 174.185 10.512 174.185 10.512C174.121 10.528 174.025 10.56 173.897 10.608C173.785 10.64 173.681 10.688 173.585 10.752C173.217 11.008 172.945 11.136 172.769 11.136C172.609 11.136 172.449 10.944 172.289 10.56C172.225 10.384 172.201 10.216 172.217 10.056C172.233 9.896 172.297 9.768 172.409 9.672C172.537 9.56 172.697 9.448 172.889 9.336C173.081 9.208 173.209 9.12 173.273 9.072C173.449 8.96 173.697 8.84 174.017 8.712C174.337 8.584 174.529 8.512 174.593 8.496C175.009 8.368 175.361 8.368 175.649 8.496C175.937 8.608 176.153 8.832 176.297 9.168C176.521 9.44 176.633 9.728 176.633 10.032C176.633 10.336 176.521 10.712 176.297 11.16L176.057 11.52C175.977 11.68 175.961 11.76 176.009 11.76C176.073 11.76 176.145 11.704 176.225 11.592C176.273 11.528 176.369 11.432 176.513 11.304C176.657 11.176 176.753 11.112 176.801 11.112C176.801 11.112 176.817 11.104 176.849 11.088C176.897 11.072 176.921 11.008 176.921 10.896C176.969 10.848 177.017 10.8 177.065 10.752C177.129 10.704 177.161 10.68 177.161 10.68C177.225 10.68 177.305 10.648 177.401 10.584C177.513 10.504 177.697 10.36 177.953 10.152C178.129 10.024 178.289 9.96 178.433 9.96C178.801 9.848 179.097 9.968 179.321 10.32C179.561 10.672 179.681 11.128 179.681 11.688L179.177 12.984L180.041 11.928C180.137 11.8 180.233 11.688 180.329 11.592C180.441 11.496 180.537 11.416 180.617 11.352C180.649 11.24 180.697 11.176 180.761 11.16C180.825 11.144 180.857 11.136 180.857 11.136C180.857 11.136 180.873 11.136 180.905 11.136C180.937 11.12 180.953 11.088 180.953 11.04C181.033 10.976 181.121 10.92 181.217 10.872C181.313 10.808 181.377 10.744 181.409 10.68C181.681 10.568 182.009 10.552 182.393 10.632C182.777 10.696 183.049 10.896 183.209 11.232C183.321 11.424 183.425 11.592 183.521 11.736C183.617 11.88 183.665 12.096 183.665 12.384C183.633 12.624 183.601 12.792 183.569 12.888C183.553 12.984 183.537 13.088 183.521 13.2C183.505 13.296 183.481 13.472 183.449 13.728C183.385 13.856 183.345 13.992 183.329 14.136C183.329 14.28 183.329 14.416 183.329 14.544C183.329 14.752 183.337 14.896 183.353 14.976C183.369 15.04 183.433 15.072 183.545 15.072C183.769 15.024 183.953 14.952 184.097 14.856C184.257 14.744 184.433 14.6 184.625 14.424C184.865 14.2 185.073 14.168 185.249 14.328C185.441 14.472 185.561 14.64 185.609 14.832C185.641 14.896 185.609 15.04 185.513 15.264C185.417 15.488 185.305 15.704 185.177 15.912C185.049 16.12 184.945 16.224 184.865 16.224C184.817 16.224 184.721 16.288 184.577 16.416C184.433 16.544 184.321 16.632 184.241 16.68C184.129 16.792 184.017 16.896 183.905 16.992C183.809 17.088 183.697 17.136 183.569 17.136C183.505 17.136 183.425 17.16 183.329 17.208C183.249 17.24 183.153 17.256 183.041 17.256C182.881 17.304 182.633 17.28 182.297 17.184C181.977 17.088 181.769 16.864 181.673 16.512C181.609 16.336 181.513 16.112 181.385 15.84C181.273 15.568 181.249 15.232 181.313 14.832C181.377 14.544 181.417 14.28 181.433 14.04C181.449 13.8 181.481 13.632 181.529 13.536C181.529 13.488 181.529 13.376 181.529 13.2C181.529 13.008 181.505 12.912 181.457 12.912C181.393 12.912 181.273 12.992 181.097 13.152C180.921 13.312 180.713 13.528 180.473 13.8C180.233 14.056 179.985 14.336 179.729 14.64C179.489 14.944 179.273 15.248 179.081 15.552C178.937 15.728 178.809 15.944 178.697 16.2C178.585 16.456 178.505 16.6 178.457 16.632C178.345 16.76 178.153 16.776 177.881 16.68C177.625 16.584 177.433 16.432 177.305 16.224C177.257 16.128 177.201 16.072 177.137 16.056C177.073 16.024 177.017 15.976 176.969 15.912C176.937 15.832 176.937 15.68 176.969 15.456C177.017 15.232 177.121 14.872 177.281 14.376C177.457 13.832 177.609 13.344 177.737 12.912C177.881 12.464 177.953 12.24 177.953 12.24C177.953 12.176 177.833 12.24 177.593 12.432C177.353 12.608 177.073 12.832 176.753 13.104C176.609 13.28 176.417 13.504 176.177 13.776C175.953 14.048 175.689 14.368 175.385 14.736C175.097 15.104 174.769 15.536 174.401 16.032C173.937 16.688 173.585 17.088 173.345 17.232C173.121 17.376 172.921 17.336 172.745 17.112ZM189.747 18.432C188.867 18.432 188.187 18.176 187.707 17.664C187.243 17.152 187.011 16.368 187.011 15.312C187.011 14.736 187.115 14.104 187.323 13.416C187.547 12.728 187.835 12.056 188.187 11.4C188.555 10.744 188.955 10.176 189.387 9.696C189.819 9.2 190.251 8.856 190.683 8.664C190.843 8.584 191.011 8.528 191.187 8.496C191.379 8.448 191.563 8.424 191.739 8.424C191.931 8.424 192.139 8.44 192.363 8.472C192.603 8.488 192.827 8.536 193.035 8.616C193.403 8.728 193.723 8.944 193.995 9.264C194.283 9.584 194.427 10.048 194.427 10.656C194.427 10.816 194.411 10.992 194.379 11.184C194.347 11.36 194.291 11.536 194.211 11.712C194.003 12.24 193.683 12.744 193.251 13.224C192.835 13.704 192.395 14.04 191.931 14.232C191.803 14.296 191.675 14.344 191.547 14.376C191.435 14.392 191.315 14.4 191.187 14.4C190.851 14.4 190.547 14.352 190.275 14.256C190.019 14.16 189.779 14.032 189.555 13.872L189.363 13.704L189.243 13.944C189.131 14.248 189.051 14.504 189.003 14.712C188.971 14.92 188.955 15.072 188.955 15.168C188.955 15.36 188.963 15.56 188.979 15.768C188.995 15.96 189.043 16.12 189.123 16.248C189.187 16.328 189.267 16.392 189.363 16.44C189.475 16.488 189.611 16.512 189.771 16.512C189.867 16.512 189.955 16.512 190.035 16.512C190.131 16.496 190.211 16.48 190.275 16.464C190.563 16.4 190.795 16.296 190.971 16.152C191.163 15.992 191.363 15.856 191.571 15.744L191.667 15.696L191.643 15.624C191.915 15.48 192.099 15.392 192.195 15.36C192.291 15.312 192.363 15.272 192.411 15.24C192.475 15.176 192.547 15.144 192.627 15.144C192.851 15.112 193.067 15.176 193.275 15.336C193.499 15.48 193.611 15.664 193.611 15.888C193.611 15.984 193.539 16.136 193.395 16.344C193.267 16.552 193.099 16.76 192.891 16.968C192.699 17.16 192.499 17.312 192.291 17.424C192.243 17.44 192.195 17.464 192.147 17.496C192.099 17.512 192.051 17.536 192.003 17.568H192.027C191.883 17.76 191.739 17.856 191.595 17.856H191.403C191.339 17.968 191.131 18.088 190.779 18.216C190.427 18.36 190.083 18.432 189.747 18.432ZM190.995 12.648C191.139 12.648 191.267 12.624 191.379 12.576C191.507 12.528 191.627 12.472 191.739 12.408C192.123 12.136 192.371 11.784 192.483 11.352C192.595 10.92 192.555 10.592 192.363 10.368C192.331 10.32 192.291 10.288 192.243 10.272C192.195 10.24 192.139 10.224 192.075 10.224C191.899 10.224 191.699 10.28 191.475 10.392C191.267 10.504 191.059 10.664 190.851 10.872C190.643 11.08 190.451 11.328 190.275 11.616L189.963 12.12C189.995 12.104 190.019 12.096 190.035 12.096C190.067 12.08 190.091 12.072 190.107 12.072C190.251 12.072 190.347 12.12 190.395 12.216C190.443 12.312 190.499 12.408 190.562 12.504C190.643 12.6 190.787 12.648 190.995 12.648ZM205.384 17.784C205.176 17.88 204.936 17.92 204.664 17.904C204.392 17.888 204.024 17.8 203.56 17.64C203.528 17.64 203.416 17.568 203.224 17.424C203.032 17.28 202.84 17.112 202.648 16.92C202.456 16.728 202.328 16.568 202.264 16.44C202.008 16.072 201.928 15.528 202.024 14.808C202.136 14.088 202.392 13.224 202.792 12.216C202.904 11.976 203.072 11.672 203.296 11.304C203.536 10.936 203.768 10.6 203.992 10.296C204.232 9.976 204.4 9.792 204.496 9.744C204.496 9.744 204.584 9.712 204.76 9.648C204.936 9.584 205.16 9.48 205.432 9.336C205.512 9.304 205.648 9.264 205.84 9.216C206.048 9.168 206.256 9.128 206.464 9.096C206.688 9.048 206.84 9.032 206.92 9.048C207.24 9.064 207.568 9.184 207.904 9.408C208.256 9.616 208.544 9.864 208.768 10.152C208.992 10.424 209.064 10.664 208.984 10.872C208.984 10.904 208.936 11.008 208.84 11.184C208.76 11.344 208.672 11.512 208.576 11.688C208.48 11.848 208.4 11.968 208.336 12.048C208.256 12.144 208.112 12.184 207.904 12.168C207.712 12.152 207.536 12.088 207.376 11.976C207.216 11.864 207.128 11.712 207.112 11.52C207.08 11.392 206.96 11.272 206.752 11.16C206.56 11.048 206.464 10.992 206.464 10.992C206.336 10.992 206.168 11.12 205.96 11.376C205.752 11.632 205.536 11.92 205.312 12.24C205.024 12.528 204.816 12.84 204.688 13.176C204.576 13.496 204.496 13.8 204.448 14.088C204.416 14.36 204.376 14.568 204.328 14.712C204.264 14.872 204.264 15.072 204.328 15.312C204.392 15.552 204.472 15.688 204.568 15.72C204.712 15.736 204.904 15.728 205.144 15.696C205.4 15.648 205.664 15.592 205.936 15.528C206.224 15.448 206.512 15.368 206.8 15.288C207.088 15.192 207.344 15.096 207.568 15C207.872 14.808 208.136 14.736 208.36 14.784C208.584 14.816 208.752 14.848 208.864 14.88C209.04 14.944 209.128 15.08 209.128 15.288C209.128 15.496 209.056 15.72 208.912 15.96C208.768 16.184 208.56 16.368 208.288 16.512C208.032 16.64 207.8 16.784 207.592 16.944C207.4 17.088 207.304 17.2 207.304 17.28C207.24 17.28 207.168 17.304 207.088 17.352C207.024 17.384 206.968 17.392 206.92 17.376C206.888 17.376 206.76 17.4 206.536 17.448C206.312 17.496 206.08 17.552 205.84 17.616C205.616 17.68 205.464 17.736 205.384 17.784ZM219.339 18.312C218.987 18.328 218.635 18.264 218.283 18.12C217.947 17.992 217.675 17.736 217.467 17.352C217.307 17.048 217.195 16.72 217.131 16.368C217.067 16.016 217.067 15.68 217.131 15.36C217.323 14.304 217.483 13.536 217.611 13.056C217.739 12.576 217.811 12.304 217.827 12.24C217.859 12.176 217.907 12.032 217.971 11.808C218.051 11.584 218.139 11.392 218.235 11.232C218.315 10.992 218.339 10.712 218.307 10.392C218.291 10.264 218.307 10.112 218.355 9.936C218.419 9.76 218.499 9.632 218.595 9.552C218.867 9.344 219.083 9.072 219.243 8.736C219.291 8.624 219.371 8.456 219.483 8.232C219.595 7.992 219.715 7.752 219.843 7.512C219.987 7.256 220.099 7.048 220.179 6.888C220.435 6.568 220.699 6.192 220.971 5.76C221.243 5.328 221.547 4.96 221.883 4.656C222.091 4.304 222.347 3.992 222.651 3.72C222.971 3.432 223.283 3.168 223.587 2.928C223.907 2.672 224.163 2.448 224.355 2.256C224.483 2.112 224.739 2 225.123 1.92C225.507 1.84 225.811 1.768 226.035 1.704C226.291 1.624 226.579 1.672 226.899 1.848C227.219 2.024 227.435 2.184 227.547 2.328C227.787 2.744 227.931 3.096 227.979 3.384C228.027 3.656 227.995 3.968 227.883 4.32C227.771 4.656 227.571 5.128 227.283 5.736C226.963 6.376 226.499 7 225.891 7.608C225.283 8.216 224.643 8.752 223.971 9.216C223.667 9.488 223.331 9.744 222.963 9.984C222.595 10.224 222.243 10.432 221.907 10.608C221.699 10.72 221.483 10.824 221.259 10.92C221.051 11 220.835 11.08 220.611 11.16C220.499 11.192 220.419 11.28 220.371 11.424C220.339 11.568 220.283 11.744 220.203 11.952C220.187 12.096 220.147 12.224 220.083 12.336C220.035 12.432 219.995 12.504 219.963 12.552C219.915 12.6 219.859 12.744 219.795 12.984C219.731 13.224 219.667 13.512 219.603 13.848C219.539 14.184 219.475 14.512 219.411 14.832C219.347 15.152 219.299 15.4 219.267 15.576C219.235 15.752 219.227 15.88 219.243 15.96C219.275 16.024 219.331 16.072 219.411 16.104C219.587 16.072 219.715 16 219.795 15.888C219.891 15.76 219.995 15.632 220.107 15.504C220.235 15.28 220.339 15.072 220.419 14.88C220.515 14.688 220.619 14.448 220.731 14.16C220.795 13.984 220.859 13.784 220.923 13.56C221.003 13.32 221.083 13.12 221.163 12.96C221.163 12.624 221.155 12.376 221.139 12.216C221.139 12.04 221.123 11.896 221.091 11.784C221.075 11.672 221.043 11.552 220.995 11.424C221.107 10.992 221.211 10.744 221.307 10.68C221.403 10.6 221.507 10.576 221.619 10.608C221.939 10.672 222.211 10.776 222.435 10.92C222.675 11.064 222.891 11.224 223.083 11.4C223.179 11.48 223.243 11.584 223.275 11.712C223.323 11.84 223.331 11.944 223.299 12.024C223.283 12.216 223.259 12.424 223.227 12.648C223.211 12.856 223.203 13.048 223.203 13.224C223.091 13.48 222.987 13.808 222.891 14.208C222.795 14.608 222.675 14.976 222.531 15.312C222.435 15.52 222.275 15.8 222.051 16.152C221.843 16.488 221.675 16.744 221.547 16.92C221.339 17.176 221.043 17.416 220.659 17.64C220.291 17.864 219.947 18.088 219.627 18.312H219.339ZM221.115 8.76C221.211 8.792 221.307 8.792 221.403 8.76C221.515 8.712 221.619 8.664 221.715 8.616C222.291 8.36 222.843 8.024 223.371 7.608C223.915 7.176 224.395 6.728 224.811 6.264C225.243 5.784 225.555 5.352 225.747 4.968C225.843 4.792 225.947 4.568 226.059 4.296C226.187 4.024 226.259 3.712 226.275 3.36L226.203 3.192C225.915 3.4 225.619 3.64 225.315 3.912C225.011 4.184 224.651 4.536 224.235 4.968C224.075 5.128 223.859 5.352 223.587 5.64C223.315 5.912 223.019 6.224 222.699 6.576C222.395 6.928 222.099 7.296 221.811 7.68C221.523 8.048 221.291 8.408 221.115 8.76ZM227.129 17.568C226.937 17.616 226.721 17.56 226.481 17.4C226.241 17.24 226.025 17.04 225.833 16.8C225.641 16.56 225.521 16.344 225.473 16.152C225.409 15.816 225.425 15.408 225.521 14.928C225.633 14.432 225.817 13.912 226.073 13.368C226.329 12.808 226.649 12.264 227.033 11.736C227.417 11.192 227.849 10.704 228.329 10.272C228.809 9.84 229.329 9.504 229.889 9.264C230.129 9.136 230.297 9.056 230.393 9.024C230.489 8.976 230.585 8.976 230.681 9.024C230.777 9.056 230.945 9.136 231.185 9.264C231.409 9.328 231.633 9.408 231.857 9.504C232.097 9.584 232.305 9.744 232.481 9.984C232.609 10.224 232.705 10.464 232.769 10.704C232.833 10.944 232.889 11.216 232.937 11.52C233.065 11.92 233.113 12.184 233.081 12.312C233.049 12.424 233.001 12.512 232.937 12.576C232.809 12.736 232.777 12.816 232.841 12.816C232.841 12.816 232.833 12.848 232.817 12.912C232.817 12.96 232.785 13.04 232.721 13.152C232.609 13.504 232.521 13.84 232.457 14.16C232.409 14.464 232.417 14.736 232.481 14.976C232.609 15.328 232.777 15.536 232.985 15.6C233.209 15.664 233.497 15.52 233.849 15.168C234.025 15.04 234.225 14.96 234.449 14.928C234.673 14.88 234.785 14.92 234.785 15.048C234.785 15.048 234.809 15.072 234.857 15.12C234.905 15.152 234.961 15.168 235.025 15.168C235.105 15.168 235.137 15.248 235.121 15.408C235.105 15.552 235.073 15.72 235.025 15.912C234.977 16.104 234.913 16.264 234.833 16.392C234.593 16.632 234.473 16.792 234.473 16.872C234.473 16.872 234.441 16.904 234.377 16.968C234.329 17.016 234.241 17.096 234.113 17.208C233.825 17.384 233.457 17.472 233.009 17.472C232.577 17.472 232.241 17.384 232.001 17.208C231.761 17.032 231.521 16.816 231.281 16.56C231.057 16.304 230.913 16.064 230.849 15.84L230.729 15.6L230.033 16.056C229.857 16.232 229.729 16.368 229.649 16.464C229.569 16.544 229.497 16.616 229.433 16.68C229.385 16.744 229.329 16.8 229.265 16.848C229.217 16.896 229.161 16.92 229.097 16.92C229.033 16.92 228.977 16.92 228.929 16.92C228.881 16.92 228.857 16.92 228.857 16.92C228.857 16.984 228.745 17.072 228.521 17.184C228.297 17.28 228.049 17.368 227.777 17.448C227.505 17.528 227.289 17.568 227.129 17.568ZM227.633 15.552C227.729 15.552 227.873 15.496 228.065 15.384C228.273 15.256 228.497 15.104 228.737 14.928C228.977 14.752 229.193 14.576 229.385 14.4C229.593 14.224 229.745 14.08 229.841 13.968C229.905 13.904 229.977 13.8 230.057 13.656C230.153 13.512 230.257 13.384 230.369 13.272C230.737 12.856 230.969 12.528 231.065 12.288C231.161 12.032 231.121 11.76 230.945 11.472C230.881 11.296 230.801 11.2 230.705 11.184C230.609 11.168 230.409 11.224 230.105 11.352C229.913 11.464 229.705 11.648 229.481 11.904C229.257 12.16 229.025 12.448 228.785 12.768C228.561 13.088 228.353 13.416 228.161 13.752C227.969 14.088 227.809 14.392 227.681 14.664C227.569 14.936 227.513 15.152 227.513 15.312C227.513 15.376 227.529 15.432 227.561 15.48C227.609 15.528 227.633 15.552 227.633 15.552ZM248.069 17.88C247.813 17.928 247.557 17.936 247.301 17.904C247.045 17.872 246.805 17.776 246.581 17.616C246.469 17.392 246.357 17.184 246.245 16.992C246.149 16.8 246.157 16.576 246.269 16.32C246.365 16.064 246.405 15.808 246.389 15.552C246.389 15.28 246.429 15.016 246.509 14.76C246.525 14.728 246.533 14.696 246.533 14.664C246.549 14.632 246.565 14.608 246.581 14.592C246.661 14.448 246.709 14.28 246.725 14.088C246.757 13.896 246.797 13.72 246.845 13.56C246.861 13.512 246.877 13.416 246.893 13.272C246.909 13.128 246.925 12.968 246.941 12.792C246.957 12.6 246.973 12.424 246.989 12.264C247.021 12.136 247.037 12.024 247.037 11.928C247.053 11.816 247.061 11.752 247.061 11.736C247.013 11.784 246.861 11.984 246.605 12.336C246.349 12.688 246.061 13.088 245.741 13.536C245.421 13.968 245.141 14.352 244.901 14.688C244.869 14.752 244.837 14.808 244.805 14.856C244.773 14.888 244.741 14.928 244.709 14.976C244.629 15.088 244.565 15.184 244.517 15.264C244.469 15.328 244.445 15.368 244.445 15.384C244.237 15.72 243.973 16.064 243.653 16.416C243.333 16.752 243.029 17.056 242.741 17.328C242.421 17.392 242.165 17.376 241.973 17.28C241.797 17.168 241.573 17.08 241.301 17.016C241.237 16.888 241.173 16.76 241.109 16.632C241.045 16.488 240.981 16.352 240.917 16.224C240.949 16.064 241.005 15.776 241.085 15.36C241.181 14.928 241.277 14.448 241.373 13.92C241.485 13.392 241.565 12.904 241.613 12.456C241.629 12.376 241.637 12.304 241.637 12.24C241.653 12.176 241.661 12.112 241.661 12.048C241.677 12.016 241.685 11.984 241.685 11.952C241.685 11.92 241.685 11.888 241.685 11.856C241.701 11.744 241.709 11.64 241.709 11.544C241.709 11.448 241.701 11.368 241.685 11.304C241.685 11.272 241.685 11.248 241.685 11.232C241.685 11.2 241.677 11.176 241.661 11.16C241.277 11.912 240.909 12.504 240.557 12.936C240.221 13.368 239.901 13.76 239.597 14.112C239.341 14.432 239.085 14.76 238.829 15.096C238.589 15.416 238.325 15.728 238.037 16.032C237.877 16.192 237.701 16.352 237.509 16.512C237.333 16.672 237.141 16.824 236.933 16.968C236.837 17.176 236.709 17.328 236.549 17.424C236.389 17.52 236.221 17.568 236.045 17.568C235.773 17.568 235.517 17.48 235.277 17.304C235.037 17.112 234.917 16.888 234.917 16.632C234.917 16.392 235.029 16.16 235.253 15.936C235.285 15.888 235.317 15.84 235.349 15.792C235.381 15.728 235.405 15.672 235.421 15.624C235.741 15.288 236.109 14.904 236.525 14.472C236.957 14.04 237.365 13.616 237.749 13.2C238.133 12.784 238.413 12.44 238.589 12.168C238.669 12.04 238.773 11.872 238.901 11.664C239.045 11.456 239.213 11.232 239.405 10.992C239.645 10.656 239.901 10.32 240.173 9.984C240.445 9.632 240.701 9.312 240.941 9.024C241.197 8.72 241.389 8.504 241.517 8.376C241.661 8.472 241.813 8.552 241.973 8.616C242.149 8.664 242.317 8.688 242.477 8.688C242.557 8.8 242.637 8.912 242.717 9.024C242.813 9.12 242.917 9.216 243.029 9.312C243.221 9.472 243.349 9.704 243.413 10.008C243.493 10.312 243.533 10.648 243.533 11.016C243.533 11.608 243.469 12.232 243.341 12.888C243.229 13.528 243.141 14.072 243.077 14.52C243.109 14.488 243.133 14.456 243.149 14.424C243.181 14.376 243.205 14.336 243.221 14.304C243.525 13.84 243.821 13.4 244.109 12.984C244.397 12.568 244.685 12.184 244.973 11.832C245.229 11.496 245.485 11.184 245.741 10.896C245.997 10.592 246.245 10.304 246.485 10.032C246.741 9.76 246.997 9.496 247.253 9.24C247.381 9.112 247.509 8.984 247.637 8.856C247.781 8.728 247.925 8.6 248.069 8.472C248.213 8.488 248.365 8.496 248.525 8.496C248.701 8.48 248.869 8.472 249.029 8.472C249.189 8.584 249.325 8.664 249.437 8.712C249.549 8.744 249.701 8.784 249.893 8.832C249.893 9.04 249.917 9.232 249.965 9.408C250.013 9.584 250.021 9.776 249.989 9.984C249.957 10.16 249.933 10.288 249.917 10.368C249.917 10.448 249.869 10.576 249.773 10.752C249.677 10.928 249.581 11.216 249.485 11.616C249.389 12 249.309 12.4 249.245 12.816C249.181 13.216 249.125 13.536 249.077 13.776C249.061 13.92 249.029 14.072 248.981 14.232C248.933 14.376 248.853 14.536 248.741 14.712C248.709 14.872 248.693 15.016 248.693 15.144C248.709 15.256 248.677 15.392 248.597 15.552C248.597 15.584 248.597 15.624 248.597 15.672C248.597 15.704 248.597 15.736 248.597 15.768C248.613 15.88 248.613 15.992 248.597 16.104C248.597 16.2 248.573 16.304 248.525 16.416C248.525 16.592 248.525 16.72 248.525 16.8C248.541 16.88 248.581 17.008 248.645 17.184C248.549 17.296 248.453 17.408 248.357 17.52C248.261 17.632 248.165 17.752 248.069 17.88ZM256.775 17.952C256.615 17.792 256.487 17.576 256.391 17.304C256.295 17.016 256.199 16.688 256.103 16.32C256.071 16.192 256.055 16.048 256.055 15.888C256.071 15.728 256.071 15.6 256.055 15.504C256.007 15.616 255.927 15.76 255.815 15.936C255.719 16.112 255.623 16.24 255.527 16.32C255.463 16.384 255.319 16.512 255.095 16.704C254.871 16.88 254.647 17.024 254.423 17.136C253.895 17.472 253.423 17.632 253.007 17.616C252.607 17.584 252.255 17.376 251.951 16.992C251.695 16.784 251.487 16.52 251.327 16.2C251.167 15.88 251.135 15.496 251.231 15.048C251.263 14.488 251.343 13.944 251.471 13.416C251.599 12.872 251.863 12.152 252.263 11.256C252.599 10.6 252.855 10.088 253.031 9.72C253.207 9.352 253.319 9.136 253.367 9.072C253.607 8.992 253.903 9 254.255 9.096C254.607 9.176 254.799 9.328 254.831 9.552C254.927 9.712 254.927 10.016 254.831 10.464C254.735 10.896 254.543 11.392 254.255 11.952C254.031 12.496 253.815 13.024 253.607 13.536C253.415 14.048 253.295 14.48 253.247 14.832C253.215 15.184 253.311 15.4 253.535 15.48C253.679 15.56 253.887 15.552 254.159 15.456C254.447 15.36 254.783 15.072 255.167 14.592C255.551 14.112 255.959 13.352 256.391 12.312C256.519 11.992 256.615 11.712 256.679 11.472C256.743 11.216 256.783 10.936 256.799 10.632C256.767 10.44 256.815 10.24 256.943 10.032C257.087 9.824 257.255 9.664 257.447 9.552C257.511 9.472 257.599 9.4 257.711 9.336C257.823 9.256 257.895 9.256 257.927 9.336L258.311 9.312C258.375 9.296 258.447 9.36 258.527 9.504C258.607 9.648 258.687 9.752 258.767 9.816C258.943 9.96 259.023 10.272 259.007 10.752C258.991 11.232 258.799 11.904 258.431 12.768C258.127 13.424 257.919 13.92 257.807 14.256C257.711 14.592 257.655 14.92 257.639 15.24C257.639 15.528 257.663 15.776 257.711 15.984C257.759 16.176 257.903 16.376 258.143 16.584C258.319 16.696 258.415 16.888 258.431 17.16C258.463 17.416 258.471 17.64 258.455 17.832C258.423 17.976 258.295 18.072 258.071 18.12C257.863 18.184 257.631 18.2 257.375 18.168C257.135 18.136 256.935 18.064 256.775 17.952ZM262.37 14.136C261.922 14.216 261.57 14.032 261.314 13.584C261.058 13.12 261.074 12.312 261.362 11.16C261.458 10.968 261.538 10.784 261.602 10.608C261.666 10.416 261.698 10.264 261.698 10.152C261.762 9.944 261.842 9.704 261.938 9.432C262.05 9.144 262.162 8.88 262.274 8.64C262.386 8.384 262.466 8.216 262.514 8.136C262.578 8.136 262.642 8.08 262.706 7.968C262.786 7.856 262.826 7.744 262.826 7.632C262.826 7.504 262.85 7.36 262.898 7.2C262.962 7.04 263.026 6.928 263.09 6.864C263.09 6.784 263.122 6.696 263.186 6.6C263.25 6.504 263.282 6.424 263.282 6.36C263.282 6.296 263.298 6.24 263.33 6.192C263.378 6.144 263.402 6.088 263.402 6.024C263.546 5.768 263.73 5.392 263.954 4.896C264.194 4.384 264.426 3.848 264.65 3.288C264.89 2.728 265.09 2.232 265.25 1.8C265.41 1.368 265.49 1.104 265.49 1.008C265.522 0.88 265.57 0.759999 265.634 0.647999C265.698 0.535999 265.794 0.495999 265.922 0.527999C265.986 0.48 266.082 0.456 266.21 0.456C266.338 0.439999 266.434 0.431999 266.498 0.431999C266.498 0.431999 266.57 0.463999 266.714 0.527999C266.858 0.591999 266.986 0.687999 267.098 0.816C267.226 0.927999 267.298 1.08 267.314 1.272C267.33 1.464 267.338 1.656 267.338 1.848C267.322 2.152 267.21 2.496 267.002 2.88C266.794 3.264 266.562 3.688 266.306 4.152C266.146 4.456 265.986 4.744 265.826 5.016C265.682 5.288 265.61 5.456 265.61 5.52C265.61 5.584 265.578 5.68 265.514 5.808C265.45 5.936 265.378 6.096 265.298 6.288C265.202 6.448 265.106 6.64 265.01 6.864C264.93 7.088 264.858 7.296 264.794 7.488C264.73 7.664 264.698 7.776 264.698 7.824C264.682 7.888 264.658 7.952 264.626 8.016C264.61 8.08 264.57 8.144 264.506 8.208C264.442 8.208 264.402 8.256 264.386 8.352C264.386 8.432 264.386 8.472 264.386 8.472C264.386 8.536 264.346 8.688 264.266 8.928C264.202 9.152 264.09 9.424 263.93 9.744C263.626 10.592 263.41 11.272 263.282 11.784C263.154 12.28 263.074 12.704 263.042 13.056C263.01 13.44 262.922 13.704 262.778 13.848C262.634 13.976 262.498 14.072 262.37 14.136ZM261.098 17.856C260.762 17.984 260.482 18.04 260.258 18.024C260.034 18.024 259.786 17.92 259.514 17.712C259.194 17.392 259.082 17.072 259.178 16.752C259.29 16.416 259.578 16.096 260.042 15.792C260.362 15.584 260.594 15.48 260.738 15.48C260.898 15.464 261.13 15.52 261.434 15.648C261.978 15.984 262.218 16.36 262.154 16.776C262.09 17.176 261.738 17.536 261.098 17.856Z" fill="black"/>
</svg>
